<?xml version="1.0" encoding="UTF-8"?>
<!DOCTYPE svg PUBLIC "-//W3C//DTD SVG 1.1//EN"
    "http://www.w3.org/Graphics/SVG/1.1/DTD/svg11.dtd">
<svg xmlns="http://www.w3.org/2000/svg" xmlns:xlink="http://www.w3.org/1999/xlink" version="1.1" width="500.0" height="187.5000000000001" font-size="1" viewBox="0 0 500 188" stroke="rgb(0,0,0)" stroke-opacity="1"><g><g fill="rgb(0,0,0)" fill-opacity="0.0"><g stroke="rgb(0,0,0)" stroke-opacity="1.0" stroke-width="1.2247448713915894" stroke-linecap="butt" stroke-linejoin="miter" font-size="1.0em" stroke-miterlimit="10.0"><g fill="rgb(255,255,255)" fill-opacity="1.0" stroke-width="0.0"><g fill="rgb(255,255,255)" fill-opacity="1.0"><g fill="rgb(255,255,255)" fill-opacity="1.0"><path d="M 500.0,187.50000000000006 l -5.551115123125783e-14,-187.5 h -500.0 l -5.551115123125783e-14,187.5 Z" /></g></g></g><g><g><g><g><g><g><path d="M 477.20645734204555,178.97727272727278 h 6.626993068165249e-2 " /></g><g><path d="M 477.07391748068227,178.97727272727278 h 6.626993068165249e-2 " /></g><g><path d="M 476.941377619319,178.97727272727278 h 6.626993068165249e-2 " /></g><g><path d="M 476.80883775795564,178.97727272727278 h 6.626993068165249e-2 " /></g><g><path d="M 476.67629789659236,178.97727272727278 h 6.626993068165249e-2 " /></g><g><path d="M 476.543758035229,178.97727272727278 h 6.626993068165249e-2 " /></g><g><path d="M 476.41121817386573,178.97727272727278 h 6.626993068165249e-2 " /></g><g><path d="M 476.27867831250245,178.97727272727278 h 6.626993068165249e-2 " /></g><g><path d="M 476.1461384511391,178.97727272727278 h 6.626993068165249e-2 " /></g><g><path d="M 476.0135985897758,178.97727272727278 h 6.626993068165249e-2 " /></g></g><g><g><path d="M 474.6881999761428,178.97727272727278 h 6.626993068165249e-2 " /></g><g><path d="M 474.5556601147795,178.97727272727278 h 6.626993068165249e-2 " /></g><g><path d="M 474.42312025341624,178.97727272727278 h 6.626993068165249e-2 " /></g><g><path d="M 474.2905803920529,178.97727272727278 h 6.626993068165249e-2 " /></g><g><path d="M 474.1580405306896,178.97727272727278 h 6.626993068165249e-2 " /></g><g><path d="M 474.0255006693263,178.97727272727278 h 6.626993068165249e-2 " /></g><g><path d="M 473.892960807963,178.97727272727278 h 6.626993068165249e-2 " /></g><g><path d="M 473.7604209465997,178.97727272727278 h 6.626993068165249e-2 " /></g><g><path d="M 473.62788108523637,178.97727272727278 h 6.626993068165249e-2 " /></g><g><path d="M 473.4953412238731,178.97727272727278 h 6.626993068165249e-2 " /></g></g><g><g><path d="M 472.16994261024,178.97727272727278 h 6.626993068165249e-2 " /></g><g><path d="M 472.03740274887673,178.97727272727278 h 6.626993068165249e-2 " /></g><g><path d="M 471.90486288751345,178.97727272727278 h 6.626993068165249e-2 " /></g><g><path d="M 471.7723230261501,178.97727272727278 h 6.626993068165249e-2 " /></g><g><path d="M 471.6397831647868,178.97727272727278 h 6.626993068165249e-2 " /></g><g><path d="M 471.5072433034235,178.97727272727278 h 6.626993068165249e-2 " /></g><g><path d="M 471.3747034420602,178.97727272727278 h 6.626993068165249e-2 " /></g><g><path d="M 471.2421635806969,178.97727272727278 h 6.626993068165249e-2 " /></g><g><path d="M 471.10962371933357,178.97727272727278 h 6.626993068165249e-2 " /></g><g><path d="M 470.9770838579703,178.97727272727278 h 6.626993068165249e-2 " /></g></g><g><g><path d="M 469.6516852443372,178.97727272727278 h 6.626993068165249e-2 " /></g><g><path d="M 469.51914538297393,178.97727272727278 h 6.626993068165249e-2 " /></g><g><path d="M 469.38660552161065,178.97727272727278 h 6.626993068165249e-2 " /></g><g><path d="M 469.2540656602473,178.97727272727278 h 6.626993068165249e-2 " /></g><g><path d="M 469.121525798884,178.97727272727278 h 6.626993068165249e-2 " /></g><g><path d="M 468.9889859375207,178.97727272727278 h 6.626993068165249e-2 " /></g><g><path d="M 468.8564460761574,178.97727272727278 h 6.626993068165249e-2 " /></g><g><path d="M 468.7239062147941,178.97727272727278 h 6.626993068165249e-2 " /></g><g><path d="M 468.5913663534308,178.97727272727278 h 6.626993068165249e-2 " /></g><g><path d="M 468.4588264920675,178.97727272727278 h 6.626993068165249e-2 " /></g></g><g><g><path d="M 467.1334278784344,178.97727272727278 h 6.626993068165249e-2 " /></g><g><path d="M 467.00088801707113,178.97727272727278 h 6.626993068165249e-2 " /></g><g><path d="M 466.86834815570785,178.97727272727278 h 6.626993068165249e-2 " /></g><g><path d="M 466.7358082943445,178.97727272727278 h 6.626993068165249e-2 " /></g><g><path d="M 466.6032684329812,178.97727272727278 h 6.626993068165249e-2 " /></g><g><path d="M 466.4707285716179,178.97727272727278 h 6.626993068165249e-2 " /></g><g><path d="M 466.3381887102546,178.97727272727278 h 6.626993068165249e-2 " /></g><g><path d="M 466.2056488488913,178.97727272727278 h 6.626993068165249e-2 " /></g><g><path d="M 466.073108987528,178.97727272727278 h 6.626993068165249e-2 " /></g><g><path d="M 465.9405691261647,178.97727272727278 h 6.626993068165249e-2 " /></g></g><g><g><path d="M 464.6151705125316,178.97727272727278 h 6.626993068165249e-2 " /></g><g><path d="M 464.48263065116834,178.97727272727278 h 6.626993068165249e-2 " /></g><g><path d="M 464.35009078980505,178.97727272727278 h 6.626993068165249e-2 " /></g><g><path d="M 464.2175509284417,178.97727272727278 h 6.626993068165249e-2 " /></g><g><path d="M 464.0850110670784,178.97727272727278 h 6.626993068165249e-2 " /></g><g><path d="M 463.9524712057151,178.97727272727278 h 6.626993068165249e-2 " /></g><g><path d="M 463.8199313443518,178.97727272727278 h 6.626993068165249e-2 " /></g><g><path d="M 463.6873914829885,178.97727272727278 h 6.626993068165249e-2 " /></g><g><path d="M 463.5548516216252,178.97727272727278 h 6.626993068165249e-2 " /></g><g><path d="M 463.4223117602619,178.97727272727278 h 6.626993068165249e-2 " /></g></g><g><g><path d="M 462.0969131466288,178.97727272727278 h 6.626993068165249e-2 " /></g><g><path d="M 461.96437328526554,178.97727272727278 h 6.626993068165249e-2 " /></g><g><path d="M 461.83183342390225,178.97727272727278 h 6.626993068165249e-2 " /></g><g><path d="M 461.6992935625389,178.97727272727278 h 6.626993068165249e-2 " /></g><g><path d="M 461.5667537011756,178.97727272727278 h 6.626993068165249e-2 " /></g><g><path d="M 461.4342138398123,178.97727272727278 h 6.626993068165249e-2 " /></g><g><path d="M 461.301673978449,178.97727272727278 h 6.626993068165249e-2 " /></g><g><path d="M 461.1691341170857,178.97727272727278 h 6.626993068165249e-2 " /></g><g><path d="M 461.0365942557224,178.97727272727278 h 6.626993068165249e-2 " /></g><g><path d="M 460.9040543943591,178.97727272727278 h 6.626993068165249e-2 " /></g></g><g><g><path d="M 459.578655780726,178.97727272727278 h 6.626993068165249e-2 " /></g><g><path d="M 459.44611591936274,178.97727272727278 h 6.626993068165249e-2 " /></g><g><path d="M 459.31357605799946,178.97727272727278 h 6.626993068165249e-2 " /></g><g><path d="M 459.1810361966361,178.97727272727278 h 6.626993068165249e-2 " /></g><g><path d="M 459.04849633527283,178.97727272727278 h 6.626993068165249e-2 " /></g><g><path d="M 458.9159564739095,178.97727272727278 h 6.626993068165249e-2 " /></g><g><path d="M 458.7834166125462,178.97727272727278 h 6.626993068165249e-2 " /></g><g><path d="M 458.6508767511829,178.97727272727278 h 6.626993068165249e-2 " /></g><g><path d="M 458.5183368898196,178.97727272727278 h 6.626993068165249e-2 " /></g><g><path d="M 458.3857970284563,178.97727272727278 h 6.626993068165249e-2 " /></g></g><g><g><path d="M 457.0603984148232,178.97727272727278 h 6.626993068165249e-2 " /></g><g><path d="M 456.92785855345994,178.97727272727278 h 6.626993068165249e-2 " /></g><g><path d="M 456.79531869209666,178.97727272727278 h 6.626993068165249e-2 " /></g><g><path d="M 456.6627788307333,178.97727272727278 h 6.626993068165249e-2 " /></g><g><path d="M 456.53023896937003,178.97727272727278 h 6.626993068165249e-2 " /></g><g><path d="M 456.3976991080067,178.97727272727278 h 6.626993068165249e-2 " /></g><g><path d="M 456.2651592466434,178.97727272727278 h 6.626993068165249e-2 " /></g><g><path d="M 456.1326193852801,178.97727272727278 h 6.626993068165249e-2 " /></g><g><path d="M 456.0000795239168,178.97727272727278 h 6.626993068165249e-2 " /></g><g><path d="M 455.8675396625535,178.97727272727278 h 6.626993068165249e-2 " /></g></g><g><g><path d="M 454.5421410489204,178.97727272727278 h 6.626993068165249e-2 " /></g><g><path d="M 454.40960118755714,178.97727272727278 h 6.626993068165249e-2 " /></g><g><path d="M 454.27706132619386,178.97727272727278 h 6.626993068165249e-2 " /></g><g><path d="M 454.1445214648305,178.97727272727278 h 6.626993068165249e-2 " /></g><g><path d="M 454.01198160346723,178.97727272727278 h 6.626993068165249e-2 " /></g><g><path d="M 453.8794417421039,178.97727272727278 h 6.626993068165249e-2 " /></g><g><path d="M 453.7469018807406,178.97727272727278 h 6.626993068165249e-2 " /></g><g><path d="M 453.6143620193773,178.97727272727278 h 6.626993068165249e-2 " /></g><g><path d="M 453.481822158014,178.97727272727278 h 6.626993068165249e-2 " /></g><g><path d="M 453.3492822966507,178.97727272727278 h 6.626993068165249e-2 " /></g></g></g><g><g><g><path d="M 429.35956738989245,178.97727272727278 h 6.626993068165249e-2 " /></g><g><path d="M 429.22702752852916,178.97727272727278 h 6.626993068165249e-2 " /></g><g><path d="M 429.0944876671659,178.97727272727278 h 6.626993068165249e-2 " /></g><g><path d="M 428.96194780580254,178.97727272727278 h 6.626993068165249e-2 " /></g><g><path d="M 428.82940794443925,178.97727272727278 h 6.626993068165249e-2 " /></g><g><path d="M 428.6968680830759,178.97727272727278 h 6.626993068165249e-2 " /></g><g><path d="M 428.5643282217126,178.97727272727278 h 6.626993068165249e-2 " /></g><g><path d="M 428.43178836034934,178.97727272727278 h 6.626993068165249e-2 " /></g><g><path d="M 428.299248498986,178.97727272727278 h 6.626993068165249e-2 " /></g><g><path d="M 428.1667086376227,178.97727272727278 h 6.626993068165249e-2 " /></g></g><g><g><path d="M 426.8413100239897,178.97727272727278 h 6.626993068165249e-2 " /></g><g><path d="M 426.7087701626264,178.97727272727278 h 6.626993068165249e-2 " /></g><g><path d="M 426.57623030126314,178.97727272727278 h 6.626993068165249e-2 " /></g><g><path d="M 426.4436904398998,178.97727272727278 h 6.626993068165249e-2 " /></g><g><path d="M 426.3111505785365,178.97727272727278 h 6.626993068165249e-2 " /></g><g><path d="M 426.17861071717317,178.97727272727278 h 6.626993068165249e-2 " /></g><g><path d="M 426.0460708558099,178.97727272727278 h 6.626993068165249e-2 " /></g><g><path d="M 425.9135309944466,178.97727272727278 h 6.626993068165249e-2 " /></g><g><path d="M 425.78099113308326,178.97727272727278 h 6.626993068165249e-2 " /></g><g><path d="M 425.64845127172,178.97727272727278 h 6.626993068165249e-2 " /></g></g><g><g><path d="M 424.3230526580869,178.97727272727278 h 6.626993068165249e-2 " /></g><g><path d="M 424.1905127967236,178.97727272727278 h 6.626993068165249e-2 " /></g><g><path d="M 424.05797293536034,178.97727272727278 h 6.626993068165249e-2 " /></g><g><path d="M 423.925433073997,178.97727272727278 h 6.626993068165249e-2 " /></g><g><path d="M 423.7928932126337,178.97727272727278 h 6.626993068165249e-2 " /></g><g><path d="M 423.6603533512704,178.97727272727278 h 6.626993068165249e-2 " /></g><g><path d="M 423.5278134899071,178.97727272727278 h 6.626993068165249e-2 " /></g><g><path d="M 423.3952736285438,178.97727272727278 h 6.626993068165249e-2 " /></g><g><path d="M 423.26273376718046,178.97727272727278 h 6.626993068165249e-2 " /></g><g><path d="M 423.1301939058172,178.97727272727278 h 6.626993068165249e-2 " /></g></g><g><g><path d="M 421.8047952921841,178.97727272727278 h 6.626993068165249e-2 " /></g><g><path d="M 421.6722554308208,178.97727272727278 h 6.626993068165249e-2 " /></g><g><path d="M 421.53971556945754,178.97727272727278 h 6.626993068165249e-2 " /></g><g><path d="M 421.4071757080942,178.97727272727278 h 6.626993068165249e-2 " /></g><g><path d="M 421.2746358467309,178.97727272727278 h 6.626993068165249e-2 " /></g><g><path d="M 421.1420959853676,178.97727272727278 h 6.626993068165249e-2 " /></g><g><path d="M 421.0095561240043,178.97727272727278 h 6.626993068165249e-2 " /></g><g><path d="M 420.877016262641,178.97727272727278 h 6.626993068165249e-2 " /></g><g><path d="M 420.74447640127767,178.97727272727278 h 6.626993068165249e-2 " /></g><g><path d="M 420.6119365399144,178.97727272727278 h 6.626993068165249e-2 " /></g></g><g><g><path d="M 419.2865379262813,178.97727272727278 h 6.626993068165249e-2 " /></g><g><path d="M 419.153998064918,178.97727272727278 h 6.626993068165249e-2 " /></g><g><path d="M 419.02145820355474,178.97727272727278 h 6.626993068165249e-2 " /></g><g><path d="M 418.8889183421914,178.97727272727278 h 6.626993068165249e-2 " /></g><g><path d="M 418.7563784808281,178.97727272727278 h 6.626993068165249e-2 " /></g><g><path d="M 418.6238386194648,178.97727272727278 h 6.626993068165249e-2 " /></g><g><path d="M 418.4912987581015,178.97727272727278 h 6.626993068165249e-2 " /></g><g><path d="M 418.3587588967382,178.97727272727278 h 6.626993068165249e-2 " /></g><g><path d="M 418.22621903537487,178.97727272727278 h 6.626993068165249e-2 " /></g><g><path d="M 418.0936791740116,178.97727272727278 h 6.626993068165249e-2 " /></g></g><g><g><path d="M 416.7682805603785,178.97727272727278 h 6.626993068165249e-2 " /></g><g><path d="M 416.63574069901523,178.97727272727278 h 6.626993068165249e-2 " /></g><g><path d="M 416.50320083765195,178.97727272727278 h 6.626993068165249e-2 " /></g><g><path d="M 416.3706609762886,178.97727272727278 h 6.626993068165249e-2 " /></g><g><path d="M 416.2381211149253,178.97727272727278 h 6.626993068165249e-2 " /></g><g><path d="M 416.105581253562,178.97727272727278 h 6.626993068165249e-2 " /></g><g><path d="M 415.9730413921987,178.97727272727278 h 6.626993068165249e-2 " /></g><g><path d="M 415.8405015308354,178.97727272727278 h 6.626993068165249e-2 " /></g><g><path d="M 415.70796166947207,178.97727272727278 h 6.626993068165249e-2 " /></g><g><path d="M 415.5754218081088,178.97727272727278 h 6.626993068165249e-2 " /></g></g><g><g><path d="M 414.2500231944757,178.97727272727278 h 6.626993068165249e-2 " /></g><g><path d="M 414.11748333311243,178.97727272727278 h 6.626993068165249e-2 " /></g><g><path d="M 413.98494347174915,178.97727272727278 h 6.626993068165249e-2 " /></g><g><path d="M 413.8524036103858,178.97727272727278 h 6.626993068165249e-2 " /></g><g><path d="M 413.7198637490225,178.97727272727278 h 6.626993068165249e-2 " /></g><g><path d="M 413.5873238876592,178.97727272727278 h 6.626993068165249e-2 " /></g><g><path d="M 413.4547840262959,178.97727272727278 h 6.626993068165249e-2 " /></g><g><path d="M 413.3222441649326,178.97727272727278 h 6.626993068165249e-2 " /></g><g><path d="M 413.1897043035693,178.97727272727278 h 6.626993068165249e-2 " /></g><g><path d="M 413.057164442206,178.97727272727278 h 6.626993068165249e-2 " /></g></g><g><g><path d="M 411.7317658285729,178.97727272727278 h 6.626993068165249e-2 " /></g><g><path d="M 411.59922596720963,178.97727272727278 h 6.626993068165249e-2 " /></g><g><path d="M 411.46668610584635,178.97727272727278 h 6.626993068165249e-2 " /></g><g><path d="M 411.334146244483,178.97727272727278 h 6.626993068165249e-2 " /></g><g><path d="M 411.2016063831197,178.97727272727278 h 6.626993068165249e-2 " /></g><g><path d="M 411.0690665217564,178.97727272727278 h 6.626993068165249e-2 " /></g><g><path d="M 410.9365266603931,178.97727272727278 h 6.626993068165249e-2 " /></g><g><path d="M 410.8039867990298,178.97727272727278 h 6.626993068165249e-2 " /></g><g><path d="M 410.6714469376665,178.97727272727278 h 6.626993068165249e-2 " /></g><g><path d="M 410.5389070763032,178.97727272727278 h 6.626993068165249e-2 " /></g></g><g><g><path d="M 409.2135084626701,178.97727272727278 h 6.626993068165249e-2 " /></g><g><path d="M 409.08096860130684,178.97727272727278 h 6.626993068165249e-2 " /></g><g><path d="M 408.94842873994355,178.97727272727278 h 6.626993068165249e-2 " /></g><g><path d="M 408.8158888785802,178.97727272727278 h 6.626993068165249e-2 " /></g><g><path d="M 408.6833490172169,178.97727272727278 h 6.626993068165249e-2 " /></g><g><path d="M 408.5508091558536,178.97727272727278 h 6.626993068165249e-2 " /></g><g><path d="M 408.4182692944903,178.97727272727278 h 6.626993068165249e-2 " /></g><g><path d="M 408.285729433127,178.97727272727278 h 6.626993068165249e-2 " /></g><g><path d="M 408.1531895717637,178.97727272727278 h 6.626993068165249e-2 " /></g><g><path d="M 408.0206497104004,178.97727272727278 h 6.626993068165249e-2 " /></g></g><g><g><path d="M 406.6952510967673,178.97727272727278 h 6.626993068165249e-2 " /></g><g><path d="M 406.56271123540404,178.97727272727278 h 6.626993068165249e-2 " /></g><g><path d="M 406.43017137404075,178.97727272727278 h 6.626993068165249e-2 " /></g><g><path d="M 406.2976315126774,178.97727272727278 h 6.626993068165249e-2 " /></g><g><path d="M 406.1650916513141,178.97727272727278 h 6.626993068165249e-2 " /></g><g><path d="M 406.0325517899508,178.97727272727278 h 6.626993068165249e-2 " /></g><g><path d="M 405.9000119285875,178.97727272727278 h 6.626993068165249e-2 " /></g><g><path d="M 405.7674720672242,178.97727272727278 h 6.626993068165249e-2 " /></g><g><path d="M 405.6349322058609,178.97727272727278 h 6.626993068165249e-2 " /></g><g><path d="M 405.5023923444976,178.97727272727278 h 6.626993068165249e-2 " /></g></g></g><g><g><g><path d="M 381.51267743773934,178.97727272727278 h 6.626993068165249e-2 " /></g><g><path d="M 381.38013757637606,178.97727272727278 h 6.626993068165249e-2 " /></g><g><path d="M 381.2475977150128,178.97727272727278 h 6.626993068165249e-2 " /></g><g><path d="M 381.11505785364943,178.97727272727278 h 6.626993068165249e-2 " /></g><g><path d="M 380.98251799228615,178.97727272727278 h 6.626993068165249e-2 " /></g><g><path d="M 380.8499781309228,178.97727272727278 h 6.626993068165249e-2 " /></g><g><path d="M 380.7174382695595,178.97727272727278 h 6.626993068165249e-2 " /></g><g><path d="M 380.58489840819624,178.97727272727278 h 6.626993068165249e-2 " /></g><g><path d="M 380.4523585468329,178.97727272727278 h 6.626993068165249e-2 " /></g><g><path d="M 380.3198186854696,178.97727272727278 h 6.626993068165249e-2 " /></g></g><g><g><path d="M 378.9944200718366,178.97727272727278 h 6.626993068165249e-2 " /></g><g><path d="M 378.8618802104733,178.97727272727278 h 6.626993068165249e-2 " /></g><g><path d="M 378.72934034911003,178.97727272727278 h 6.626993068165249e-2 " /></g><g><path d="M 378.5968004877467,178.97727272727278 h 6.626993068165249e-2 " /></g><g><path d="M 378.4642606263834,178.97727272727278 h 6.626993068165249e-2 " /></g><g><path d="M 378.33172076502007,178.97727272727278 h 6.626993068165249e-2 " /></g><g><path d="M 378.1991809036568,178.97727272727278 h 6.626993068165249e-2 " /></g><g><path d="M 378.0666410422935,178.97727272727278 h 6.626993068165249e-2 " /></g><g><path d="M 377.93410118093016,178.97727272727278 h 6.626993068165249e-2 " /></g><g><path d="M 377.8015613195669,178.97727272727278 h 6.626993068165249e-2 " /></g></g><g><g><path d="M 376.4761627059338,178.97727272727278 h 6.626993068165249e-2 " /></g><g><path d="M 376.3436228445705,178.97727272727278 h 6.626993068165249e-2 " /></g><g><path d="M 376.21108298320723,178.97727272727278 h 6.626993068165249e-2 " /></g><g><path d="M 376.0785431218439,178.97727272727278 h 6.626993068165249e-2 " /></g><g><path d="M 375.9460032604806,178.97727272727278 h 6.626993068165249e-2 " /></g><g><path d="M 375.81346339911727,178.97727272727278 h 6.626993068165249e-2 " /></g><g><path d="M 375.680923537754,178.97727272727278 h 6.626993068165249e-2 " /></g><g><path d="M 375.5483836763907,178.97727272727278 h 6.626993068165249e-2 " /></g><g><path d="M 375.41584381502736,178.97727272727278 h 6.626993068165249e-2 " /></g><g><path d="M 375.2833039536641,178.97727272727278 h 6.626993068165249e-2 " /></g></g><g><g><path d="M 373.957905340031,178.97727272727278 h 6.626993068165249e-2 " /></g><g><path d="M 373.8253654786677,178.97727272727278 h 6.626993068165249e-2 " /></g><g><path d="M 373.69282561730444,178.97727272727278 h 6.626993068165249e-2 " /></g><g><path d="M 373.5602857559411,178.97727272727278 h 6.626993068165249e-2 " /></g><g><path d="M 373.4277458945778,178.97727272727278 h 6.626993068165249e-2 " /></g><g><path d="M 373.29520603321447,178.97727272727278 h 6.626993068165249e-2 " /></g><g><path d="M 373.1626661718512,178.97727272727278 h 6.626993068165249e-2 " /></g><g><path d="M 373.0301263104879,178.97727272727278 h 6.626993068165249e-2 " /></g><g><path d="M 372.89758644912456,178.97727272727278 h 6.626993068165249e-2 " /></g><g><path d="M 372.7650465877613,178.97727272727278 h 6.626993068165249e-2 " /></g></g><g><g><path d="M 371.4396479741282,178.97727272727278 h 6.626993068165249e-2 " /></g><g><path d="M 371.3071081127649,178.97727272727278 h 6.626993068165249e-2 " /></g><g><path d="M 371.17456825140164,178.97727272727278 h 6.626993068165249e-2 " /></g><g><path d="M 371.0420283900383,178.97727272727278 h 6.626993068165249e-2 " /></g><g><path d="M 370.909488528675,178.97727272727278 h 6.626993068165249e-2 " /></g><g><path d="M 370.7769486673117,178.97727272727278 h 6.626993068165249e-2 " /></g><g><path d="M 370.6444088059484,178.97727272727278 h 6.626993068165249e-2 " /></g><g><path d="M 370.5118689445851,178.97727272727278 h 6.626993068165249e-2 " /></g><g><path d="M 370.37932908322176,178.97727272727278 h 6.626993068165249e-2 " /></g><g><path d="M 370.2467892218585,178.97727272727278 h 6.626993068165249e-2 " /></g></g><g><g><path d="M 368.9213906082254,178.97727272727278 h 6.626993068165249e-2 " /></g><g><path d="M 368.7888507468621,178.97727272727278 h 6.626993068165249e-2 " /></g><g><path d="M 368.65631088549884,178.97727272727278 h 6.626993068165249e-2 " /></g><g><path d="M 368.5237710241355,178.97727272727278 h 6.626993068165249e-2 " /></g><g><path d="M 368.3912311627722,178.97727272727278 h 6.626993068165249e-2 " /></g><g><path d="M 368.2586913014089,178.97727272727278 h 6.626993068165249e-2 " /></g><g><path d="M 368.1261514400456,178.97727272727278 h 6.626993068165249e-2 " /></g><g><path d="M 367.9936115786823,178.97727272727278 h 6.626993068165249e-2 " /></g><g><path d="M 367.86107171731896,178.97727272727278 h 6.626993068165249e-2 " /></g><g><path d="M 367.7285318559557,178.97727272727278 h 6.626993068165249e-2 " /></g></g><g><g><path d="M 366.4031332423226,178.97727272727278 h 6.626993068165249e-2 " /></g><g><path d="M 366.2705933809593,178.97727272727278 h 6.626993068165249e-2 " /></g><g><path d="M 366.13805351959604,178.97727272727278 h 6.626993068165249e-2 " /></g><g><path d="M 366.0055136582327,178.97727272727278 h 6.626993068165249e-2 " /></g><g><path d="M 365.8729737968694,178.97727272727278 h 6.626993068165249e-2 " /></g><g><path d="M 365.7404339355061,178.97727272727278 h 6.626993068165249e-2 " /></g><g><path d="M 365.6078940741428,178.97727272727278 h 6.626993068165249e-2 " /></g><g><path d="M 365.4753542127795,178.97727272727278 h 6.626993068165249e-2 " /></g><g><path d="M 365.34281435141617,178.97727272727278 h 6.626993068165249e-2 " /></g><g><path d="M 365.2102744900529,178.97727272727278 h 6.626993068165249e-2 " /></g></g><g><g><path d="M 363.8848758764198,178.97727272727278 h 6.626993068165249e-2 " /></g><g><path d="M 363.7523360150565,178.97727272727278 h 6.626993068165249e-2 " /></g><g><path d="M 363.61979615369324,178.97727272727278 h 6.626993068165249e-2 " /></g><g><path d="M 363.4872562923299,178.97727272727278 h 6.626993068165249e-2 " /></g><g><path d="M 363.3547164309666,178.97727272727278 h 6.626993068165249e-2 " /></g><g><path d="M 363.2221765696033,178.97727272727278 h 6.626993068165249e-2 " /></g><g><path d="M 363.08963670824,178.97727272727278 h 6.626993068165249e-2 " /></g><g><path d="M 362.9570968468767,178.97727272727278 h 6.626993068165249e-2 " /></g><g><path d="M 362.82455698551337,178.97727272727278 h 6.626993068165249e-2 " /></g><g><path d="M 362.6920171241501,178.97727272727278 h 6.626993068165249e-2 " /></g></g><g><g><path d="M 361.366618510517,178.97727272727278 h 6.626993068165249e-2 " /></g><g><path d="M 361.23407864915373,178.97727272727278 h 6.626993068165249e-2 " /></g><g><path d="M 361.10153878779045,178.97727272727278 h 6.626993068165249e-2 " /></g><g><path d="M 360.9689989264271,178.97727272727278 h 6.626993068165249e-2 " /></g><g><path d="M 360.8364590650638,178.97727272727278 h 6.626993068165249e-2 " /></g><g><path d="M 360.7039192037005,178.97727272727278 h 6.626993068165249e-2 " /></g><g><path d="M 360.5713793423372,178.97727272727278 h 6.626993068165249e-2 " /></g><g><path d="M 360.4388394809739,178.97727272727278 h 6.626993068165249e-2 " /></g><g><path d="M 360.30629961961057,178.97727272727278 h 6.626993068165249e-2 " /></g><g><path d="M 360.1737597582473,178.97727272727278 h 6.626993068165249e-2 " /></g></g><g><g><path d="M 358.8483611446142,178.97727272727278 h 6.626993068165249e-2 " /></g><g><path d="M 358.71582128325093,178.97727272727278 h 6.626993068165249e-2 " /></g><g><path d="M 358.58328142188765,178.97727272727278 h 6.626993068165249e-2 " /></g><g><path d="M 358.4507415605243,178.97727272727278 h 6.626993068165249e-2 " /></g><g><path d="M 358.318201699161,178.97727272727278 h 6.626993068165249e-2 " /></g><g><path d="M 358.1856618377977,178.97727272727278 h 6.626993068165249e-2 " /></g><g><path d="M 358.0531219764344,178.97727272727278 h 6.626993068165249e-2 " /></g><g><path d="M 357.9205821150711,178.97727272727278 h 6.626993068165249e-2 " /></g><g><path d="M 357.7880422537078,178.97727272727278 h 6.626993068165249e-2 " /></g><g><path d="M 357.6555023923445,178.97727272727278 h 6.626993068165249e-2 " /></g></g></g><g><g><g><path d="M 333.66578748558624,178.97727272727278 h 6.626993068165249e-2 " /></g><g><path d="M 333.53324762422295,178.97727272727278 h 6.626993068165249e-2 " /></g><g><path d="M 333.40070776285967,178.97727272727278 h 6.626993068165249e-2 " /></g><g><path d="M 333.2681679014963,178.97727272727278 h 6.626993068165249e-2 " /></g><g><path d="M 333.13562804013304,178.97727272727278 h 6.626993068165249e-2 " /></g><g><path d="M 333.0030881787697,178.97727272727278 h 6.626993068165249e-2 " /></g><g><path d="M 332.8705483174064,178.97727272727278 h 6.626993068165249e-2 " /></g><g><path d="M 332.73800845604313,178.97727272727278 h 6.626993068165249e-2 " /></g><g><path d="M 332.6054685946798,178.97727272727278 h 6.626993068165249e-2 " /></g><g><path d="M 332.4729287333165,178.97727272727278 h 6.626993068165249e-2 " /></g></g><g><g><path d="M 331.1475301196835,178.97727272727278 h 6.626993068165249e-2 " /></g><g><path d="M 331.0149902583202,178.97727272727278 h 6.626993068165249e-2 " /></g><g><path d="M 330.8824503969569,178.97727272727278 h 6.626993068165249e-2 " /></g><g><path d="M 330.7499105355936,178.97727272727278 h 6.626993068165249e-2 " /></g><g><path d="M 330.6173706742303,178.97727272727278 h 6.626993068165249e-2 " /></g><g><path d="M 330.48483081286696,178.97727272727278 h 6.626993068165249e-2 " /></g><g><path d="M 330.3522909515037,178.97727272727278 h 6.626993068165249e-2 " /></g><g><path d="M 330.2197510901404,178.97727272727278 h 6.626993068165249e-2 " /></g><g><path d="M 330.08721122877705,178.97727272727278 h 6.626993068165249e-2 " /></g><g><path d="M 329.95467136741377,178.97727272727278 h 6.626993068165249e-2 " /></g></g><g><g><path d="M 328.6292727537807,178.97727272727278 h 6.626993068165249e-2 " /></g><g><path d="M 328.4967328924174,178.97727272727278 h 6.626993068165249e-2 " /></g><g><path d="M 328.3641930310541,178.97727272727278 h 6.626993068165249e-2 " /></g><g><path d="M 328.2316531696908,178.97727272727278 h 6.626993068165249e-2 " /></g><g><path d="M 328.0991133083275,178.97727272727278 h 6.626993068165249e-2 " /></g><g><path d="M 327.96657344696416,178.97727272727278 h 6.626993068165249e-2 " /></g><g><path d="M 327.8340335856009,178.97727272727278 h 6.626993068165249e-2 " /></g><g><path d="M 327.7014937242376,178.97727272727278 h 6.626993068165249e-2 " /></g><g><path d="M 327.56895386287425,178.97727272727278 h 6.626993068165249e-2 " /></g><g><path d="M 327.43641400151097,178.97727272727278 h 6.626993068165249e-2 " /></g></g><g><g><path d="M 326.1110153878779,178.97727272727278 h 6.626993068165249e-2 " /></g><g><path d="M 325.9784755265146,178.97727272727278 h 6.626993068165249e-2 " /></g><g><path d="M 325.84593566515133,178.97727272727278 h 6.626993068165249e-2 " /></g><g><path d="M 325.713395803788,178.97727272727278 h 6.626993068165249e-2 " /></g><g><path d="M 325.5808559424247,178.97727272727278 h 6.626993068165249e-2 " /></g><g><path d="M 325.44831608106136,178.97727272727278 h 6.626993068165249e-2 " /></g><g><path d="M 325.3157762196981,178.97727272727278 h 6.626993068165249e-2 " /></g><g><path d="M 325.1832363583348,178.97727272727278 h 6.626993068165249e-2 " /></g><g><path d="M 325.05069649697145,178.97727272727278 h 6.626993068165249e-2 " /></g><g><path d="M 324.91815663560817,178.97727272727278 h 6.626993068165249e-2 " /></g></g><g><g><path d="M 323.5927580219751,178.97727272727278 h 6.626993068165249e-2 " /></g><g><path d="M 323.4602181606118,178.97727272727278 h 6.626993068165249e-2 " /></g><g><path d="M 323.32767829924853,178.97727272727278 h 6.626993068165249e-2 " /></g><g><path d="M 323.1951384378852,178.97727272727278 h 6.626993068165249e-2 " /></g><g><path d="M 323.0625985765219,178.97727272727278 h 6.626993068165249e-2 " /></g><g><path d="M 322.93005871515857,178.97727272727278 h 6.626993068165249e-2 " /></g><g><path d="M 322.7975188537953,178.97727272727278 h 6.626993068165249e-2 " /></g><g><path d="M 322.664978992432,178.97727272727278 h 6.626993068165249e-2 " /></g><g><path d="M 322.53243913106866,178.97727272727278 h 6.626993068165249e-2 " /></g><g><path d="M 322.3998992697054,178.97727272727278 h 6.626993068165249e-2 " /></g></g><g><g><path d="M 321.0745006560723,178.97727272727278 h 6.626993068165249e-2 " /></g><g><path d="M 320.941960794709,178.97727272727278 h 6.626993068165249e-2 " /></g><g><path d="M 320.80942093334573,178.97727272727278 h 6.626993068165249e-2 " /></g><g><path d="M 320.6768810719824,178.97727272727278 h 6.626993068165249e-2 " /></g><g><path d="M 320.5443412106191,178.97727272727278 h 6.626993068165249e-2 " /></g><g><path d="M 320.41180134925577,178.97727272727278 h 6.626993068165249e-2 " /></g><g><path d="M 320.2792614878925,178.97727272727278 h 6.626993068165249e-2 " /></g><g><path d="M 320.1467216265292,178.97727272727278 h 6.626993068165249e-2 " /></g><g><path d="M 320.01418176516586,178.97727272727278 h 6.626993068165249e-2 " /></g><g><path d="M 319.8816419038026,178.97727272727278 h 6.626993068165249e-2 " /></g></g><g><g><path d="M 318.5562432901695,178.97727272727278 h 6.626993068165249e-2 " /></g><g><path d="M 318.4237034288062,178.97727272727278 h 6.626993068165249e-2 " /></g><g><path d="M 318.29116356744294,178.97727272727278 h 6.626993068165249e-2 " /></g><g><path d="M 318.1586237060796,178.97727272727278 h 6.626993068165249e-2 " /></g><g><path d="M 318.0260838447163,178.97727272727278 h 6.626993068165249e-2 " /></g><g><path d="M 317.89354398335297,178.97727272727278 h 6.626993068165249e-2 " /></g><g><path d="M 317.7610041219897,178.97727272727278 h 6.626993068165249e-2 " /></g><g><path d="M 317.6284642606264,178.97727272727278 h 6.626993068165249e-2 " /></g><g><path d="M 317.49592439926306,178.97727272727278 h 6.626993068165249e-2 " /></g><g><path d="M 317.3633845378998,178.97727272727278 h 6.626993068165249e-2 " /></g></g><g><g><path d="M 316.0379859242667,178.97727272727278 h 6.626993068165249e-2 " /></g><g><path d="M 315.9054460629034,178.97727272727278 h 6.626993068165249e-2 " /></g><g><path d="M 315.77290620154014,178.97727272727278 h 6.626993068165249e-2 " /></g><g><path d="M 315.6403663401768,178.97727272727278 h 6.626993068165249e-2 " /></g><g><path d="M 315.5078264788135,178.97727272727278 h 6.626993068165249e-2 " /></g><g><path d="M 315.3752866174502,178.97727272727278 h 6.626993068165249e-2 " /></g><g><path d="M 315.2427467560869,178.97727272727278 h 6.626993068165249e-2 " /></g><g><path d="M 315.1102068947236,178.97727272727278 h 6.626993068165249e-2 " /></g><g><path d="M 314.97766703336026,178.97727272727278 h 6.626993068165249e-2 " /></g><g><path d="M 314.845127171997,178.97727272727278 h 6.626993068165249e-2 " /></g></g><g><g><path d="M 313.5197285583639,178.97727272727278 h 6.626993068165249e-2 " /></g><g><path d="M 313.3871886970006,178.97727272727278 h 6.626993068165249e-2 " /></g><g><path d="M 313.25464883563734,178.97727272727278 h 6.626993068165249e-2 " /></g><g><path d="M 313.122108974274,178.97727272727278 h 6.626993068165249e-2 " /></g><g><path d="M 312.9895691129107,178.97727272727278 h 6.626993068165249e-2 " /></g><g><path d="M 312.8570292515474,178.97727272727278 h 6.626993068165249e-2 " /></g><g><path d="M 312.7244893901841,178.97727272727278 h 6.626993068165249e-2 " /></g><g><path d="M 312.5919495288208,178.97727272727278 h 6.626993068165249e-2 " /></g><g><path d="M 312.45940966745746,178.97727272727278 h 6.626993068165249e-2 " /></g><g><path d="M 312.3268698060942,178.97727272727278 h 6.626993068165249e-2 " /></g></g><g><g><path d="M 311.0014711924611,178.97727272727278 h 6.626993068165249e-2 " /></g><g><path d="M 310.8689313310978,178.97727272727278 h 6.626993068165249e-2 " /></g><g><path d="M 310.73639146973454,178.97727272727278 h 6.626993068165249e-2 " /></g><g><path d="M 310.6038516083712,178.97727272727278 h 6.626993068165249e-2 " /></g><g><path d="M 310.4713117470079,178.97727272727278 h 6.626993068165249e-2 " /></g><g><path d="M 310.3387718856446,178.97727272727278 h 6.626993068165249e-2 " /></g><g><path d="M 310.2062320242813,178.97727272727278 h 6.626993068165249e-2 " /></g><g><path d="M 310.073692162918,178.97727272727278 h 6.626993068165249e-2 " /></g><g><path d="M 309.94115230155467,178.97727272727278 h 6.626993068165249e-2 " /></g><g><path d="M 309.8086124401914,178.97727272727278 h 6.626993068165249e-2 " /></g></g></g><g><g><g><path d="M 285.81889753343313,178.97727272727278 h 6.626993068165249e-2 " /></g><g><path d="M 285.68635767206985,178.97727272727278 h 6.626993068165249e-2 " /></g><g><path d="M 285.55381781070656,178.97727272727278 h 6.626993068165249e-2 " /></g><g><path d="M 285.4212779493432,178.97727272727278 h 6.626993068165249e-2 " /></g><g><path d="M 285.28873808797994,178.97727272727278 h 6.626993068165249e-2 " /></g><g><path d="M 285.1561982266166,178.97727272727278 h 6.626993068165249e-2 " /></g><g><path d="M 285.0236583652533,178.97727272727278 h 6.626993068165249e-2 " /></g><g><path d="M 284.89111850389,178.97727272727278 h 6.626993068165249e-2 " /></g><g><path d="M 284.7585786425267,178.97727272727278 h 6.626993068165249e-2 " /></g><g><path d="M 284.6260387811634,178.97727272727278 h 6.626993068165249e-2 " /></g></g><g><g><path d="M 283.3006401675304,178.97727272727278 h 6.626993068165249e-2 " /></g><g><path d="M 283.1681003061671,178.97727272727278 h 6.626993068165249e-2 " /></g><g><path d="M 283.0355604448038,178.97727272727278 h 6.626993068165249e-2 " /></g><g><path d="M 282.9030205834405,178.97727272727278 h 6.626993068165249e-2 " /></g><g><path d="M 282.7704807220772,178.97727272727278 h 6.626993068165249e-2 " /></g><g><path d="M 282.63794086071385,178.97727272727278 h 6.626993068165249e-2 " /></g><g><path d="M 282.50540099935057,178.97727272727278 h 6.626993068165249e-2 " /></g><g><path d="M 282.3728611379873,178.97727272727278 h 6.626993068165249e-2 " /></g><g><path d="M 282.24032127662394,178.97727272727278 h 6.626993068165249e-2 " /></g><g><path d="M 282.10778141526066,178.97727272727278 h 6.626993068165249e-2 " /></g></g><g><g><path d="M 280.7823828016276,178.97727272727278 h 6.626993068165249e-2 " /></g><g><path d="M 280.6498429402643,178.97727272727278 h 6.626993068165249e-2 " /></g><g><path d="M 280.517303078901,178.97727272727278 h 6.626993068165249e-2 " /></g><g><path d="M 280.3847632175377,178.97727272727278 h 6.626993068165249e-2 " /></g><g><path d="M 280.2522233561744,178.97727272727278 h 6.626993068165249e-2 " /></g><g><path d="M 280.11968349481106,178.97727272727278 h 6.626993068165249e-2 " /></g><g><path d="M 279.9871436334478,178.97727272727278 h 6.626993068165249e-2 " /></g><g><path d="M 279.8546037720845,178.97727272727278 h 6.626993068165249e-2 " /></g><g><path d="M 279.72206391072115,178.97727272727278 h 6.626993068165249e-2 " /></g><g><path d="M 279.58952404935786,178.97727272727278 h 6.626993068165249e-2 " /></g></g><g><g><path d="M 278.2641254357248,178.97727272727278 h 6.626993068165249e-2 " /></g><g><path d="M 278.1315855743615,178.97727272727278 h 6.626993068165249e-2 " /></g><g><path d="M 277.9990457129982,178.97727272727278 h 6.626993068165249e-2 " /></g><g><path d="M 277.8665058516349,178.97727272727278 h 6.626993068165249e-2 " /></g><g><path d="M 277.7339659902716,178.97727272727278 h 6.626993068165249e-2 " /></g><g><path d="M 277.60142612890826,178.97727272727278 h 6.626993068165249e-2 " /></g><g><path d="M 277.468886267545,178.97727272727278 h 6.626993068165249e-2 " /></g><g><path d="M 277.3363464061817,178.97727272727278 h 6.626993068165249e-2 " /></g><g><path d="M 277.20380654481835,178.97727272727278 h 6.626993068165249e-2 " /></g><g><path d="M 277.07126668345506,178.97727272727278 h 6.626993068165249e-2 " /></g></g><g><g><path d="M 275.745868069822,178.97727272727278 h 6.626993068165249e-2 " /></g><g><path d="M 275.6133282084587,178.97727272727278 h 6.626993068165249e-2 " /></g><g><path d="M 275.4807883470954,178.97727272727278 h 6.626993068165249e-2 " /></g><g><path d="M 275.3482484857321,178.97727272727278 h 6.626993068165249e-2 " /></g><g><path d="M 275.2157086243688,178.97727272727278 h 6.626993068165249e-2 " /></g><g><path d="M 275.08316876300546,178.97727272727278 h 6.626993068165249e-2 " /></g><g><path d="M 274.9506289016422,178.97727272727278 h 6.626993068165249e-2 " /></g><g><path d="M 274.8180890402789,178.97727272727278 h 6.626993068165249e-2 " /></g><g><path d="M 274.68554917891555,178.97727272727278 h 6.626993068165249e-2 " /></g><g><path d="M 274.55300931755227,178.97727272727278 h 6.626993068165249e-2 " /></g></g><g><g><path d="M 273.2276107039192,178.97727272727278 h 6.626993068165249e-2 " /></g><g><path d="M 273.0950708425559,178.97727272727278 h 6.626993068165249e-2 " /></g><g><path d="M 272.96253098119263,178.97727272727278 h 6.626993068165249e-2 " /></g><g><path d="M 272.8299911198293,178.97727272727278 h 6.626993068165249e-2 " /></g><g><path d="M 272.697451258466,178.97727272727278 h 6.626993068165249e-2 " /></g><g><path d="M 272.56491139710266,178.97727272727278 h 6.626993068165249e-2 " /></g><g><path d="M 272.4323715357394,178.97727272727278 h 6.626993068165249e-2 " /></g><g><path d="M 272.2998316743761,178.97727272727278 h 6.626993068165249e-2 " /></g><g><path d="M 272.16729181301275,178.97727272727278 h 6.626993068165249e-2 " /></g><g><path d="M 272.03475195164947,178.97727272727278 h 6.626993068165249e-2 " /></g></g><g><g><path d="M 270.7093533380164,178.97727272727278 h 6.626993068165249e-2 " /></g><g><path d="M 270.5768134766531,178.97727272727278 h 6.626993068165249e-2 " /></g><g><path d="M 270.44427361528983,178.97727272727278 h 6.626993068165249e-2 " /></g><g><path d="M 270.3117337539265,178.97727272727278 h 6.626993068165249e-2 " /></g><g><path d="M 270.1791938925632,178.97727272727278 h 6.626993068165249e-2 " /></g><g><path d="M 270.04665403119986,178.97727272727278 h 6.626993068165249e-2 " /></g><g><path d="M 269.9141141698366,178.97727272727278 h 6.626993068165249e-2 " /></g><g><path d="M 269.7815743084733,178.97727272727278 h 6.626993068165249e-2 " /></g><g><path d="M 269.64903444710995,178.97727272727278 h 6.626993068165249e-2 " /></g><g><path d="M 269.51649458574667,178.97727272727278 h 6.626993068165249e-2 " /></g></g><g><g><path d="M 268.1910959721136,178.97727272727278 h 6.626993068165249e-2 " /></g><g><path d="M 268.0585561107503,178.97727272727278 h 6.626993068165249e-2 " /></g><g><path d="M 267.92601624938703,178.97727272727278 h 6.626993068165249e-2 " /></g><g><path d="M 267.7934763880237,178.97727272727278 h 6.626993068165249e-2 " /></g><g><path d="M 267.6609365266604,178.97727272727278 h 6.626993068165249e-2 " /></g><g><path d="M 267.52839666529707,178.97727272727278 h 6.626993068165249e-2 " /></g><g><path d="M 267.3958568039338,178.97727272727278 h 6.626993068165249e-2 " /></g><g><path d="M 267.2633169425705,178.97727272727278 h 6.626993068165249e-2 " /></g><g><path d="M 267.13077708120716,178.97727272727278 h 6.626993068165249e-2 " /></g><g><path d="M 266.9982372198439,178.97727272727278 h 6.626993068165249e-2 " /></g></g><g><g><path d="M 265.6728386062108,178.97727272727278 h 6.626993068165249e-2 " /></g><g><path d="M 265.5402987448475,178.97727272727278 h 6.626993068165249e-2 " /></g><g><path d="M 265.40775888348423,178.97727272727278 h 6.626993068165249e-2 " /></g><g><path d="M 265.2752190221209,178.97727272727278 h 6.626993068165249e-2 " /></g><g><path d="M 265.1426791607576,178.97727272727278 h 6.626993068165249e-2 " /></g><g><path d="M 265.01013929939427,178.97727272727278 h 6.626993068165249e-2 " /></g><g><path d="M 264.877599438031,178.97727272727278 h 6.626993068165249e-2 " /></g><g><path d="M 264.7450595766677,178.97727272727278 h 6.626993068165249e-2 " /></g><g><path d="M 264.61251971530436,178.97727272727278 h 6.626993068165249e-2 " /></g><g><path d="M 264.4799798539411,178.97727272727278 h 6.626993068165249e-2 " /></g></g><g><g><path d="M 263.154581240308,178.97727272727278 h 6.626993068165249e-2 " /></g><g><path d="M 263.0220413789447,178.97727272727278 h 6.626993068165249e-2 " /></g><g><path d="M 262.88950151758144,178.97727272727278 h 6.626993068165249e-2 " /></g><g><path d="M 262.7569616562181,178.97727272727278 h 6.626993068165249e-2 " /></g><g><path d="M 262.6244217948548,178.97727272727278 h 6.626993068165249e-2 " /></g><g><path d="M 262.49188193349147,178.97727272727278 h 6.626993068165249e-2 " /></g><g><path d="M 262.3593420721282,178.97727272727278 h 6.626993068165249e-2 " /></g><g><path d="M 262.2268022107649,178.97727272727278 h 6.626993068165249e-2 " /></g><g><path d="M 262.09426234940156,178.97727272727278 h 6.626993068165249e-2 " /></g><g><path d="M 261.9617224880383,178.97727272727278 h 6.626993068165249e-2 " /></g></g></g><g><g><g><path d="M 237.97200758128008,178.97727272727278 h 6.626993068165249e-2 " /></g><g><path d="M 237.83946771991677,178.97727272727278 h 6.626993068165249e-2 " /></g><g><path d="M 237.70692785855346,178.97727272727278 h 6.626993068165249e-2 " /></g><g><path d="M 237.57438799719014,178.97727272727278 h 6.626993068165249e-2 " /></g><g><path d="M 237.44184813582686,178.97727272727278 h 6.626993068165249e-2 " /></g><g><path d="M 237.30930827446355,178.97727272727278 h 6.626993068165249e-2 " /></g><g><path d="M 237.17676841310023,178.97727272727278 h 6.626993068165249e-2 " /></g><g><path d="M 237.04422855173692,178.97727272727278 h 6.626993068165249e-2 " /></g><g><path d="M 236.91168869037364,178.97727272727278 h 6.626993068165249e-2 " /></g><g><path d="M 236.77914882901032,178.97727272727278 h 6.626993068165249e-2 " /></g></g><g><g><path d="M 235.45375021537728,178.97727272727278 h 6.626993068165249e-2 " /></g><g><path d="M 235.32121035401397,178.97727272727278 h 6.626993068165249e-2 " /></g><g><path d="M 235.18867049265066,178.97727272727278 h 6.626993068165249e-2 " /></g><g><path d="M 235.05613063128735,178.97727272727278 h 6.626993068165249e-2 " /></g><g><path d="M 234.92359076992406,178.97727272727278 h 6.626993068165249e-2 " /></g><g><path d="M 234.79105090856075,178.97727272727278 h 6.626993068165249e-2 " /></g><g><path d="M 234.65851104719744,178.97727272727278 h 6.626993068165249e-2 " /></g><g><path d="M 234.52597118583412,178.97727272727278 h 6.626993068165249e-2 " /></g><g><path d="M 234.39343132447084,178.97727272727278 h 6.626993068165249e-2 " /></g><g><path d="M 234.26089146310753,178.97727272727278 h 6.626993068165249e-2 " /></g></g><g><g><path d="M 232.93549284947449,178.97727272727278 h 6.626993068165249e-2 " /></g><g><path d="M 232.80295298811117,178.97727272727278 h 6.626993068165249e-2 " /></g><g><path d="M 232.67041312674786,178.97727272727278 h 6.626993068165249e-2 " /></g><g><path d="M 232.53787326538455,178.97727272727278 h 6.626993068165249e-2 " /></g><g><path d="M 232.40533340402126,178.97727272727278 h 6.626993068165249e-2 " /></g><g><path d="M 232.27279354265795,178.97727272727278 h 6.626993068165249e-2 " /></g><g><path d="M 232.14025368129464,178.97727272727278 h 6.626993068165249e-2 " /></g><g><path d="M 232.00771381993133,178.97727272727278 h 6.626993068165249e-2 " /></g><g><path d="M 231.87517395856804,178.97727272727278 h 6.626993068165249e-2 " /></g><g><path d="M 231.74263409720473,178.97727272727278 h 6.626993068165249e-2 " /></g></g><g><g><path d="M 230.4172354835717,178.97727272727278 h 6.626993068165249e-2 " /></g><g><path d="M 230.28469562220837,178.97727272727278 h 6.626993068165249e-2 " /></g><g><path d="M 230.15215576084506,178.97727272727278 h 6.626993068165249e-2 " /></g><g><path d="M 230.01961589948175,178.97727272727278 h 6.626993068165249e-2 " /></g><g><path d="M 229.88707603811847,178.97727272727278 h 6.626993068165249e-2 " /></g><g><path d="M 229.75453617675515,178.97727272727278 h 6.626993068165249e-2 " /></g><g><path d="M 229.62199631539184,178.97727272727278 h 6.626993068165249e-2 " /></g><g><path d="M 229.48945645402853,178.97727272727278 h 6.626993068165249e-2 " /></g><g><path d="M 229.35691659266524,178.97727272727278 h 6.626993068165249e-2 " /></g><g><path d="M 229.22437673130193,178.97727272727278 h 6.626993068165249e-2 " /></g></g><g><g><path d="M 227.8989781176689,178.97727272727278 h 6.626993068165249e-2 " /></g><g><path d="M 227.76643825630558,178.97727272727278 h 6.626993068165249e-2 " /></g><g><path d="M 227.63389839494226,178.97727272727278 h 6.626993068165249e-2 " /></g><g><path d="M 227.50135853357895,178.97727272727278 h 6.626993068165249e-2 " /></g><g><path d="M 227.36881867221567,178.97727272727278 h 6.626993068165249e-2 " /></g><g><path d="M 227.23627881085235,178.97727272727278 h 6.626993068165249e-2 " /></g><g><path d="M 227.10373894948904,178.97727272727278 h 6.626993068165249e-2 " /></g><g><path d="M 226.97119908812573,178.97727272727278 h 6.626993068165249e-2 " /></g><g><path d="M 226.83865922676245,178.97727272727278 h 6.626993068165249e-2 " /></g><g><path d="M 226.70611936539913,178.97727272727278 h 6.626993068165249e-2 " /></g></g><g><g><path d="M 225.38072075176612,178.97727272727278 h 6.626993068165249e-2 " /></g><g><path d="M 225.2481808904028,178.97727272727278 h 6.626993068165249e-2 " /></g><g><path d="M 225.1156410290395,178.97727272727278 h 6.626993068165249e-2 " /></g><g><path d="M 224.98310116767618,178.97727272727278 h 6.626993068165249e-2 " /></g><g><path d="M 224.8505613063129,178.97727272727278 h 6.626993068165249e-2 " /></g><g><path d="M 224.71802144494958,178.97727272727278 h 6.626993068165249e-2 " /></g><g><path d="M 224.58548158358627,178.97727272727278 h 6.626993068165249e-2 " /></g><g><path d="M 224.45294172222296,178.97727272727278 h 6.626993068165249e-2 " /></g><g><path d="M 224.32040186085968,178.97727272727278 h 6.626993068165249e-2 " /></g><g><path d="M 224.18786199949636,178.97727272727278 h 6.626993068165249e-2 " /></g></g><g><g><path d="M 222.86246338586332,178.97727272727278 h 6.626993068165249e-2 " /></g><g><path d="M 222.7299235245,178.97727272727278 h 6.626993068165249e-2 " /></g><g><path d="M 222.5973836631367,178.97727272727278 h 6.626993068165249e-2 " /></g><g><path d="M 222.46484380177338,178.97727272727278 h 6.626993068165249e-2 " /></g><g><path d="M 222.3323039404101,178.97727272727278 h 6.626993068165249e-2 " /></g><g><path d="M 222.1997640790468,178.97727272727278 h 6.626993068165249e-2 " /></g><g><path d="M 222.06722421768347,178.97727272727278 h 6.626993068165249e-2 " /></g><g><path d="M 221.93468435632016,178.97727272727278 h 6.626993068165249e-2 " /></g><g><path d="M 221.80214449495688,178.97727272727278 h 6.626993068165249e-2 " /></g><g><path d="M 221.66960463359356,178.97727272727278 h 6.626993068165249e-2 " /></g></g><g><g><path d="M 220.34420601996052,178.97727272727278 h 6.626993068165249e-2 " /></g><g><path d="M 220.2116661585972,178.97727272727278 h 6.626993068165249e-2 " /></g><g><path d="M 220.0791262972339,178.97727272727278 h 6.626993068165249e-2 " /></g><g><path d="M 219.94658643587059,178.97727272727278 h 6.626993068165249e-2 " /></g><g><path d="M 219.8140465745073,178.97727272727278 h 6.626993068165249e-2 " /></g><g><path d="M 219.681506713144,178.97727272727278 h 6.626993068165249e-2 " /></g><g><path d="M 219.54896685178068,178.97727272727278 h 6.626993068165249e-2 " /></g><g><path d="M 219.41642699041736,178.97727272727278 h 6.626993068165249e-2 " /></g><g><path d="M 219.28388712905408,178.97727272727278 h 6.626993068165249e-2 " /></g><g><path d="M 219.15134726769077,178.97727272727278 h 6.626993068165249e-2 " /></g></g><g><g><path d="M 217.82594865405773,178.97727272727278 h 6.626993068165249e-2 " /></g><g><path d="M 217.6934087926944,178.97727272727278 h 6.626993068165249e-2 " /></g><g><path d="M 217.5608689313311,178.97727272727278 h 6.626993068165249e-2 " /></g><g><path d="M 217.4283290699678,178.97727272727278 h 6.626993068165249e-2 " /></g><g><path d="M 217.2957892086045,178.97727272727278 h 6.626993068165249e-2 " /></g><g><path d="M 217.1632493472412,178.97727272727278 h 6.626993068165249e-2 " /></g><g><path d="M 217.03070948587788,178.97727272727278 h 6.626993068165249e-2 " /></g><g><path d="M 216.89816962451457,178.97727272727278 h 6.626993068165249e-2 " /></g><g><path d="M 216.76562976315128,178.97727272727278 h 6.626993068165249e-2 " /></g><g><path d="M 216.63308990178797,178.97727272727278 h 6.626993068165249e-2 " /></g></g><g><g><path d="M 215.30769128815493,178.97727272727278 h 6.626993068165249e-2 " /></g><g><path d="M 215.17515142679161,178.97727272727278 h 6.626993068165249e-2 " /></g><g><path d="M 215.0426115654283,178.97727272727278 h 6.626993068165249e-2 " /></g><g><path d="M 214.910071704065,178.97727272727278 h 6.626993068165249e-2 " /></g><g><path d="M 214.7775318427017,178.97727272727278 h 6.626993068165249e-2 " /></g><g><path d="M 214.6449919813384,178.97727272727278 h 6.626993068165249e-2 " /></g><g><path d="M 214.51245211997508,178.97727272727278 h 6.626993068165249e-2 " /></g><g><path d="M 214.37991225861177,178.97727272727278 h 6.626993068165249e-2 " /></g><g><path d="M 214.24737239724848,178.97727272727278 h 6.626993068165249e-2 " /></g><g><path d="M 214.11483253588517,178.97727272727278 h 6.626993068165249e-2 " /></g></g></g><g><g><g><path d="M 190.12511762912698,178.97727272727278 h 6.626993068165249e-2 " /></g><g><path d="M 189.99257776776366,178.97727272727278 h 6.626993068165249e-2 " /></g><g><path d="M 189.86003790640035,178.97727272727278 h 6.626993068165249e-2 " /></g><g><path d="M 189.72749804503704,178.97727272727278 h 6.626993068165249e-2 " /></g><g><path d="M 189.59495818367375,178.97727272727278 h 6.626993068165249e-2 " /></g><g><path d="M 189.46241832231044,178.97727272727278 h 6.626993068165249e-2 " /></g><g><path d="M 189.32987846094713,178.97727272727278 h 6.626993068165249e-2 " /></g><g><path d="M 189.19733859958382,178.97727272727278 h 6.626993068165249e-2 " /></g><g><path d="M 189.06479873822053,178.97727272727278 h 6.626993068165249e-2 " /></g><g><path d="M 188.93225887685722,178.97727272727278 h 6.626993068165249e-2 " /></g></g><g><g><path d="M 187.60686026322418,178.97727272727278 h 6.626993068165249e-2 " /></g><g><path d="M 187.47432040186087,178.97727272727278 h 6.626993068165249e-2 " /></g><g><path d="M 187.34178054049755,178.97727272727278 h 6.626993068165249e-2 " /></g><g><path d="M 187.20924067913424,178.97727272727278 h 6.626993068165249e-2 " /></g><g><path d="M 187.07670081777096,178.97727272727278 h 6.626993068165249e-2 " /></g><g><path d="M 186.94416095640764,178.97727272727278 h 6.626993068165249e-2 " /></g><g><path d="M 186.81162109504433,178.97727272727278 h 6.626993068165249e-2 " /></g><g><path d="M 186.67908123368102,178.97727272727278 h 6.626993068165249e-2 " /></g><g><path d="M 186.54654137231773,178.97727272727278 h 6.626993068165249e-2 " /></g><g><path d="M 186.41400151095442,178.97727272727278 h 6.626993068165249e-2 " /></g></g><g><g><path d="M 185.08860289732138,178.97727272727278 h 6.626993068165249e-2 " /></g><g><path d="M 184.95606303595807,178.97727272727278 h 6.626993068165249e-2 " /></g><g><path d="M 184.82352317459475,178.97727272727278 h 6.626993068165249e-2 " /></g><g><path d="M 184.69098331323144,178.97727272727278 h 6.626993068165249e-2 " /></g><g><path d="M 184.55844345186816,178.97727272727278 h 6.626993068165249e-2 " /></g><g><path d="M 184.42590359050484,178.97727272727278 h 6.626993068165249e-2 " /></g><g><path d="M 184.29336372914153,178.97727272727278 h 6.626993068165249e-2 " /></g><g><path d="M 184.16082386777822,178.97727272727278 h 6.626993068165249e-2 " /></g><g><path d="M 184.02828400641494,178.97727272727278 h 6.626993068165249e-2 " /></g><g><path d="M 183.89574414505162,178.97727272727278 h 6.626993068165249e-2 " /></g></g><g><g><path d="M 182.57034553141858,178.97727272727278 h 6.626993068165249e-2 " /></g><g><path d="M 182.43780567005527,178.97727272727278 h 6.626993068165249e-2 " /></g><g><path d="M 182.30526580869196,178.97727272727278 h 6.626993068165249e-2 " /></g><g><path d="M 182.17272594732864,178.97727272727278 h 6.626993068165249e-2 " /></g><g><path d="M 182.04018608596536,178.97727272727278 h 6.626993068165249e-2 " /></g><g><path d="M 181.90764622460205,178.97727272727278 h 6.626993068165249e-2 " /></g><g><path d="M 181.77510636323873,178.97727272727278 h 6.626993068165249e-2 " /></g><g><path d="M 181.64256650187542,178.97727272727278 h 6.626993068165249e-2 " /></g><g><path d="M 181.51002664051214,178.97727272727278 h 6.626993068165249e-2 " /></g><g><path d="M 181.37748677914882,178.97727272727278 h 6.626993068165249e-2 " /></g></g><g><g><path d="M 180.05208816551578,178.97727272727278 h 6.626993068165249e-2 " /></g><g><path d="M 179.91954830415247,178.97727272727278 h 6.626993068165249e-2 " /></g><g><path d="M 179.78700844278916,178.97727272727278 h 6.626993068165249e-2 " /></g><g><path d="M 179.65446858142585,178.97727272727278 h 6.626993068165249e-2 " /></g><g><path d="M 179.52192872006256,178.97727272727278 h 6.626993068165249e-2 " /></g><g><path d="M 179.38938885869925,178.97727272727278 h 6.626993068165249e-2 " /></g><g><path d="M 179.25684899733594,178.97727272727278 h 6.626993068165249e-2 " /></g><g><path d="M 179.12430913597262,178.97727272727278 h 6.626993068165249e-2 " /></g><g><path d="M 178.99176927460934,178.97727272727278 h 6.626993068165249e-2 " /></g><g><path d="M 178.85922941324603,178.97727272727278 h 6.626993068165249e-2 " /></g></g><g><g><path d="M 177.533830799613,178.97727272727278 h 6.626993068165249e-2 " /></g><g><path d="M 177.4012909382497,178.97727272727278 h 6.626993068165249e-2 " /></g><g><path d="M 177.2687510768864,178.97727272727278 h 6.626993068165249e-2 " /></g><g><path d="M 177.13621121552308,178.97727272727278 h 6.626993068165249e-2 " /></g><g><path d="M 177.0036713541598,178.97727272727278 h 6.626993068165249e-2 " /></g><g><path d="M 176.87113149279648,178.97727272727278 h 6.626993068165249e-2 " /></g><g><path d="M 176.73859163143317,178.97727272727278 h 6.626993068165249e-2 " /></g><g><path d="M 176.60605177006985,178.97727272727278 h 6.626993068165249e-2 " /></g><g><path d="M 176.47351190870657,178.97727272727278 h 6.626993068165249e-2 " /></g><g><path d="M 176.34097204734326,178.97727272727278 h 6.626993068165249e-2 " /></g></g><g><g><path d="M 175.01557343371022,178.97727272727278 h 6.626993068165249e-2 " /></g><g><path d="M 174.8830335723469,178.97727272727278 h 6.626993068165249e-2 " /></g><g><path d="M 174.7504937109836,178.97727272727278 h 6.626993068165249e-2 " /></g><g><path d="M 174.61795384962028,178.97727272727278 h 6.626993068165249e-2 " /></g><g><path d="M 174.485413988257,178.97727272727278 h 6.626993068165249e-2 " /></g><g><path d="M 174.35287412689368,178.97727272727278 h 6.626993068165249e-2 " /></g><g><path d="M 174.22033426553037,178.97727272727278 h 6.626993068165249e-2 " /></g><g><path d="M 174.08779440416706,178.97727272727278 h 6.626993068165249e-2 " /></g><g><path d="M 173.95525454280377,178.97727272727278 h 6.626993068165249e-2 " /></g><g><path d="M 173.82271468144046,178.97727272727278 h 6.626993068165249e-2 " /></g></g><g><g><path d="M 172.49731606780742,178.97727272727278 h 6.626993068165249e-2 " /></g><g><path d="M 172.3647762064441,178.97727272727278 h 6.626993068165249e-2 " /></g><g><path d="M 172.2322363450808,178.97727272727278 h 6.626993068165249e-2 " /></g><g><path d="M 172.09969648371748,178.97727272727278 h 6.626993068165249e-2 " /></g><g><path d="M 171.9671566223542,178.97727272727278 h 6.626993068165249e-2 " /></g><g><path d="M 171.83461676099088,178.97727272727278 h 6.626993068165249e-2 " /></g><g><path d="M 171.70207689962757,178.97727272727278 h 6.626993068165249e-2 " /></g><g><path d="M 171.56953703826426,178.97727272727278 h 6.626993068165249e-2 " /></g><g><path d="M 171.43699717690097,178.97727272727278 h 6.626993068165249e-2 " /></g><g><path d="M 171.30445731553766,178.97727272727278 h 6.626993068165249e-2 " /></g></g><g><g><path d="M 169.97905870190462,178.97727272727278 h 6.626993068165249e-2 " /></g><g><path d="M 169.8465188405413,178.97727272727278 h 6.626993068165249e-2 " /></g><g><path d="M 169.713978979178,178.97727272727278 h 6.626993068165249e-2 " /></g><g><path d="M 169.58143911781468,178.97727272727278 h 6.626993068165249e-2 " /></g><g><path d="M 169.4488992564514,178.97727272727278 h 6.626993068165249e-2 " /></g><g><path d="M 169.31635939508809,178.97727272727278 h 6.626993068165249e-2 " /></g><g><path d="M 169.18381953372477,178.97727272727278 h 6.626993068165249e-2 " /></g><g><path d="M 169.05127967236146,178.97727272727278 h 6.626993068165249e-2 " /></g><g><path d="M 168.91873981099818,178.97727272727278 h 6.626993068165249e-2 " /></g><g><path d="M 168.78619994963486,178.97727272727278 h 6.626993068165249e-2 " /></g></g><g><g><path d="M 167.46080133600182,178.97727272727278 h 6.626993068165249e-2 " /></g><g><path d="M 167.3282614746385,178.97727272727278 h 6.626993068165249e-2 " /></g><g><path d="M 167.1957216132752,178.97727272727278 h 6.626993068165249e-2 " /></g><g><path d="M 167.06318175191188,178.97727272727278 h 6.626993068165249e-2 " /></g><g><path d="M 166.9306418905486,178.97727272727278 h 6.626993068165249e-2 " /></g><g><path d="M 166.7981020291853,178.97727272727278 h 6.626993068165249e-2 " /></g><g><path d="M 166.66556216782197,178.97727272727278 h 6.626993068165249e-2 " /></g><g><path d="M 166.53302230645866,178.97727272727278 h 6.626993068165249e-2 " /></g><g><path d="M 166.40048244509538,178.97727272727278 h 6.626993068165249e-2 " /></g><g><path d="M 166.26794258373207,178.97727272727278 h 6.626993068165249e-2 " /></g></g></g><g><g><g><path d="M 142.27822767697387,178.97727272727278 h 6.626993068165249e-2 " /></g><g><path d="M 142.14568781561056,178.97727272727278 h 6.626993068165249e-2 " /></g><g><path d="M 142.01314795424724,178.97727272727278 h 6.626993068165249e-2 " /></g><g><path d="M 141.88060809288393,178.97727272727278 h 6.626993068165249e-2 " /></g><g><path d="M 141.74806823152065,178.97727272727278 h 6.626993068165249e-2 " /></g><g><path d="M 141.61552837015734,178.97727272727278 h 6.626993068165249e-2 " /></g><g><path d="M 141.48298850879402,178.97727272727278 h 6.626993068165249e-2 " /></g><g><path d="M 141.3504486474307,178.97727272727278 h 6.626993068165249e-2 " /></g><g><path d="M 141.21790878606743,178.97727272727278 h 6.626993068165249e-2 " /></g><g><path d="M 141.0853689247041,178.97727272727278 h 6.626993068165249e-2 " /></g></g><g><g><path d="M 139.75997031107107,178.97727272727278 h 6.626993068165249e-2 " /></g><g><path d="M 139.62743044970776,178.97727272727278 h 6.626993068165249e-2 " /></g><g><path d="M 139.49489058834445,178.97727272727278 h 6.626993068165249e-2 " /></g><g><path d="M 139.36235072698113,178.97727272727278 h 6.626993068165249e-2 " /></g><g><path d="M 139.22981086561785,178.97727272727278 h 6.626993068165249e-2 " /></g><g><path d="M 139.09727100425454,178.97727272727278 h 6.626993068165249e-2 " /></g><g><path d="M 138.96473114289122,178.97727272727278 h 6.626993068165249e-2 " /></g><g><path d="M 138.8321912815279,178.97727272727278 h 6.626993068165249e-2 " /></g><g><path d="M 138.69965142016463,178.97727272727278 h 6.626993068165249e-2 " /></g><g><path d="M 138.56711155880132,178.97727272727278 h 6.626993068165249e-2 " /></g></g><g><g><path d="M 137.24171294516827,178.97727272727278 h 6.626993068165249e-2 " /></g><g><path d="M 137.10917308380496,178.97727272727278 h 6.626993068165249e-2 " /></g><g><path d="M 136.97663322244165,178.97727272727278 h 6.626993068165249e-2 " /></g><g><path d="M 136.84409336107834,178.97727272727278 h 6.626993068165249e-2 " /></g><g><path d="M 136.71155349971505,178.97727272727278 h 6.626993068165249e-2 " /></g><g><path d="M 136.57901363835174,178.97727272727278 h 6.626993068165249e-2 " /></g><g><path d="M 136.44647377698843,178.97727272727278 h 6.626993068165249e-2 " /></g><g><path d="M 136.3139339156251,178.97727272727278 h 6.626993068165249e-2 " /></g><g><path d="M 136.18139405426183,178.97727272727278 h 6.626993068165249e-2 " /></g><g><path d="M 136.04885419289852,178.97727272727278 h 6.626993068165249e-2 " /></g></g><g><g><path d="M 134.72345557926548,178.97727272727278 h 6.626993068165249e-2 " /></g><g><path d="M 134.59091571790216,178.97727272727278 h 6.626993068165249e-2 " /></g><g><path d="M 134.45837585653885,178.97727272727278 h 6.626993068165249e-2 " /></g><g><path d="M 134.32583599517554,178.97727272727278 h 6.626993068165249e-2 " /></g><g><path d="M 134.19329613381225,178.97727272727278 h 6.626993068165249e-2 " /></g><g><path d="M 134.06075627244894,178.97727272727278 h 6.626993068165249e-2 " /></g><g><path d="M 133.92821641108563,178.97727272727278 h 6.626993068165249e-2 " /></g><g><path d="M 133.79567654972232,178.97727272727278 h 6.626993068165249e-2 " /></g><g><path d="M 133.66313668835903,178.97727272727278 h 6.626993068165249e-2 " /></g><g><path d="M 133.53059682699572,178.97727272727278 h 6.626993068165249e-2 " /></g></g><g><g><path d="M 132.20519821336268,178.97727272727278 h 6.626993068165249e-2 " /></g><g><path d="M 132.07265835199937,178.97727272727278 h 6.626993068165249e-2 " /></g><g><path d="M 131.94011849063605,178.97727272727278 h 6.626993068165249e-2 " /></g><g><path d="M 131.80757862927274,178.97727272727278 h 6.626993068165249e-2 " /></g><g><path d="M 131.67503876790946,178.97727272727278 h 6.626993068165249e-2 " /></g><g><path d="M 131.54249890654614,178.97727272727278 h 6.626993068165249e-2 " /></g><g><path d="M 131.40995904518283,178.97727272727278 h 6.626993068165249e-2 " /></g><g><path d="M 131.27741918381952,178.97727272727278 h 6.626993068165249e-2 " /></g><g><path d="M 131.14487932245623,178.97727272727278 h 6.626993068165249e-2 " /></g><g><path d="M 131.01233946109292,178.97727272727278 h 6.626993068165249e-2 " /></g></g><g><g><path d="M 129.6869408474599,178.97727272727278 h 6.626993068165249e-2 " /></g><g><path d="M 129.5544009860966,178.97727272727278 h 6.626993068165249e-2 " /></g><g><path d="M 129.42186112473328,178.97727272727278 h 6.626993068165249e-2 " /></g><g><path d="M 129.28932126336997,178.97727272727278 h 6.626993068165249e-2 " /></g><g><path d="M 129.1567814020067,178.97727272727278 h 6.626993068165249e-2 " /></g><g><path d="M 129.02424154064337,178.97727272727278 h 6.626993068165249e-2 " /></g><g><path d="M 128.89170167928006,178.97727272727278 h 6.626993068165249e-2 " /></g><g><path d="M 128.75916181791675,178.97727272727278 h 6.626993068165249e-2 " /></g><g><path d="M 128.62662195655346,178.97727272727278 h 6.626993068165249e-2 " /></g><g><path d="M 128.49408209519015,178.97727272727278 h 6.626993068165249e-2 " /></g></g><g><g><path d="M 127.16868348155708,178.97727272727278 h 6.626993068165249e-2 " /></g><g><path d="M 127.03614362019378,178.97727272727278 h 6.626993068165249e-2 " /></g><g><path d="M 126.90360375883047,178.97727272727278 h 6.626993068165249e-2 " /></g><g><path d="M 126.77106389746717,178.97727272727278 h 6.626993068165249e-2 " /></g><g><path d="M 126.63852403610386,178.97727272727278 h 6.626993068165249e-2 " /></g><g><path d="M 126.50598417474056,178.97727272727278 h 6.626993068165249e-2 " /></g><g><path d="M 126.37344431337725,178.97727272727278 h 6.626993068165249e-2 " /></g><g><path d="M 126.24090445201395,178.97727272727278 h 6.626993068165249e-2 " /></g><g><path d="M 126.10836459065064,178.97727272727278 h 6.626993068165249e-2 " /></g><g><path d="M 125.97582472928734,178.97727272727278 h 6.626993068165249e-2 " /></g></g><g><g><path d="M 124.6504261156543,178.97727272727278 h 6.626993068165249e-2 " /></g><g><path d="M 124.517886254291,178.97727272727278 h 6.626993068165249e-2 " /></g><g><path d="M 124.38534639292769,178.97727272727278 h 6.626993068165249e-2 " /></g><g><path d="M 124.25280653156439,178.97727272727278 h 6.626993068165249e-2 " /></g><g><path d="M 124.12026667020108,178.97727272727278 h 6.626993068165249e-2 " /></g><g><path d="M 123.98772680883778,178.97727272727278 h 6.626993068165249e-2 " /></g><g><path d="M 123.85518694747446,178.97727272727278 h 6.626993068165249e-2 " /></g><g><path d="M 123.72264708611117,178.97727272727278 h 6.626993068165249e-2 " /></g><g><path d="M 123.59010722474785,178.97727272727278 h 6.626993068165249e-2 " /></g><g><path d="M 123.45756736338456,178.97727272727278 h 6.626993068165249e-2 " /></g></g><g><g><path d="M 122.1321687497515,178.97727272727278 h 6.626993068165249e-2 " /></g><g><path d="M 121.9996288883882,178.97727272727278 h 6.626993068165249e-2 " /></g><g><path d="M 121.86708902702489,178.97727272727278 h 6.626993068165249e-2 " /></g><g><path d="M 121.73454916566159,178.97727272727278 h 6.626993068165249e-2 " /></g><g><path d="M 121.60200930429828,178.97727272727278 h 6.626993068165249e-2 " /></g><g><path d="M 121.46946944293498,178.97727272727278 h 6.626993068165249e-2 " /></g><g><path d="M 121.33692958157167,178.97727272727278 h 6.626993068165249e-2 " /></g><g><path d="M 121.20438972020837,178.97727272727278 h 6.626993068165249e-2 " /></g><g><path d="M 121.07184985884506,178.97727272727278 h 6.626993068165249e-2 " /></g><g><path d="M 120.93930999748176,178.97727272727278 h 6.626993068165249e-2 " /></g></g><g><g><path d="M 119.6139113838487,178.97727272727278 h 6.626993068165249e-2 " /></g><g><path d="M 119.4813715224854,178.97727272727278 h 6.626993068165249e-2 " /></g><g><path d="M 119.34883166112209,178.97727272727278 h 6.626993068165249e-2 " /></g><g><path d="M 119.21629179975879,178.97727272727278 h 6.626993068165249e-2 " /></g><g><path d="M 119.08375193839548,178.97727272727278 h 6.626993068165249e-2 " /></g><g><path d="M 118.95121207703218,178.97727272727278 h 6.626993068165249e-2 " /></g><g><path d="M 118.81867221566887,178.97727272727278 h 6.626993068165249e-2 " /></g><g><path d="M 118.68613235430557,178.97727272727278 h 6.626993068165249e-2 " /></g><g><path d="M 118.55359249294226,178.97727272727278 h 6.626993068165249e-2 " /></g><g><path d="M 118.42105263157896,178.97727272727278 h 6.626993068165249e-2 " /></g></g></g><g><g><g><path d="M 94.43133772482075,178.97727272727278 h 6.626993068165249e-2 " /></g><g><path d="M 94.29879786345745,178.97727272727278 h 6.626993068165249e-2 " /></g><g><path d="M 94.16625800209414,178.97727272727278 h 6.626993068165249e-2 " /></g><g><path d="M 94.03371814073084,178.97727272727278 h 6.626993068165249e-2 " /></g><g><path d="M 93.90117827936753,178.97727272727278 h 6.626993068165249e-2 " /></g><g><path d="M 93.76863841800423,178.97727272727278 h 6.626993068165249e-2 " /></g><g><path d="M 93.63609855664092,178.97727272727278 h 6.626993068165249e-2 " /></g><g><path d="M 93.50355869527762,178.97727272727278 h 6.626993068165249e-2 " /></g><g><path d="M 93.3710188339143,178.97727272727278 h 6.626993068165249e-2 " /></g><g><path d="M 93.23847897255101,178.97727272727278 h 6.626993068165249e-2 " /></g></g><g><g><path d="M 91.91308035891795,178.97727272727278 h 6.626993068165249e-2 " /></g><g><path d="M 91.78054049755465,178.97727272727278 h 6.626993068165249e-2 " /></g><g><path d="M 91.64800063619134,178.97727272727278 h 6.626993068165249e-2 " /></g><g><path d="M 91.51546077482804,178.97727272727278 h 6.626993068165249e-2 " /></g><g><path d="M 91.38292091346473,178.97727272727278 h 6.626993068165249e-2 " /></g><g><path d="M 91.25038105210143,178.97727272727278 h 6.626993068165249e-2 " /></g><g><path d="M 91.11784119073812,178.97727272727278 h 6.626993068165249e-2 " /></g><g><path d="M 90.98530132937482,178.97727272727278 h 6.626993068165249e-2 " /></g><g><path d="M 90.85276146801151,178.97727272727278 h 6.626993068165249e-2 " /></g><g><path d="M 90.72022160664821,178.97727272727278 h 6.626993068165249e-2 " /></g></g><g><g><path d="M 89.39482299301515,178.97727272727278 h 6.626993068165249e-2 " /></g><g><path d="M 89.26228313165186,178.97727272727278 h 6.626993068165249e-2 " /></g><g><path d="M 89.12974327028854,178.97727272727278 h 6.626993068165249e-2 " /></g><g><path d="M 88.99720340892524,178.97727272727278 h 6.626993068165249e-2 " /></g><g><path d="M 88.86466354756193,178.97727272727278 h 6.626993068165249e-2 " /></g><g><path d="M 88.73212368619863,178.97727272727278 h 6.626993068165249e-2 " /></g><g><path d="M 88.59958382483532,178.97727272727278 h 6.626993068165249e-2 " /></g><g><path d="M 88.46704396347202,178.97727272727278 h 6.626993068165249e-2 " /></g><g><path d="M 88.33450410210871,178.97727272727278 h 6.626993068165249e-2 " /></g><g><path d="M 88.20196424074541,178.97727272727278 h 6.626993068165249e-2 " /></g></g><g><g><path d="M 86.87656562711237,178.97727272727278 h 6.626993068165249e-2 " /></g><g><path d="M 86.74402576574907,178.97727272727278 h 6.626993068165249e-2 " /></g><g><path d="M 86.61148590438576,178.97727272727278 h 6.626993068165249e-2 " /></g><g><path d="M 86.47894604302246,178.97727272727278 h 6.626993068165249e-2 " /></g><g><path d="M 86.34640618165915,178.97727272727278 h 6.626993068165249e-2 " /></g><g><path d="M 86.21386632029585,178.97727272727278 h 6.626993068165249e-2 " /></g><g><path d="M 86.08132645893254,178.97727272727278 h 6.626993068165249e-2 " /></g><g><path d="M 85.94878659756924,178.97727272727278 h 6.626993068165249e-2 " /></g><g><path d="M 85.81624673620593,178.97727272727278 h 6.626993068165249e-2 " /></g><g><path d="M 85.68370687484263,178.97727272727278 h 6.626993068165249e-2 " /></g></g><g><g><path d="M 84.35830826120957,178.97727272727278 h 6.626993068165249e-2 " /></g><g><path d="M 84.22576839984627,178.97727272727278 h 6.626993068165249e-2 " /></g><g><path d="M 84.09322853848296,178.97727272727278 h 6.626993068165249e-2 " /></g><g><path d="M 83.96068867711966,178.97727272727278 h 6.626993068165249e-2 " /></g><g><path d="M 83.82814881575635,178.97727272727278 h 6.626993068165249e-2 " /></g><g><path d="M 83.69560895439305,178.97727272727278 h 6.626993068165249e-2 " /></g><g><path d="M 83.56306909302974,178.97727272727278 h 6.626993068165249e-2 " /></g><g><path d="M 83.43052923166644,178.97727272727278 h 6.626993068165249e-2 " /></g><g><path d="M 83.29798937030313,178.97727272727278 h 6.626993068165249e-2 " /></g><g><path d="M 83.16544950893983,178.97727272727278 h 6.626993068165249e-2 " /></g></g><g><g><path d="M 81.84005089530677,178.97727272727278 h 6.626993068165249e-2 " /></g><g><path d="M 81.70751103394348,178.97727272727278 h 6.626993068165249e-2 " /></g><g><path d="M 81.57497117258016,178.97727272727278 h 6.626993068165249e-2 " /></g><g><path d="M 81.44243131121686,178.97727272727278 h 6.626993068165249e-2 " /></g><g><path d="M 81.30989144985355,178.97727272727278 h 6.626993068165249e-2 " /></g><g><path d="M 81.17735158849025,178.97727272727278 h 6.626993068165249e-2 " /></g><g><path d="M 81.04481172712694,178.97727272727278 h 6.626993068165249e-2 " /></g><g><path d="M 80.91227186576364,178.97727272727278 h 6.626993068165249e-2 " /></g><g><path d="M 80.77973200440033,178.97727272727278 h 6.626993068165249e-2 " /></g><g><path d="M 80.64719214303703,178.97727272727278 h 6.626993068165249e-2 " /></g></g><g><g><path d="M 79.32179352940398,178.97727272727278 h 6.626993068165249e-2 " /></g><g><path d="M 79.18925366804068,178.97727272727278 h 6.626993068165249e-2 " /></g><g><path d="M 79.05671380667737,178.97727272727278 h 6.626993068165249e-2 " /></g><g><path d="M 78.92417394531407,178.97727272727278 h 6.626993068165249e-2 " /></g><g><path d="M 78.79163408395075,178.97727272727278 h 6.626993068165249e-2 " /></g><g><path d="M 78.65909422258746,178.97727272727278 h 6.626993068165249e-2 " /></g><g><path d="M 78.52655436122414,178.97727272727278 h 6.626993068165249e-2 " /></g><g><path d="M 78.39401449986084,178.97727272727278 h 6.626993068165249e-2 " /></g><g><path d="M 78.26147463849753,178.97727272727278 h 6.626993068165249e-2 " /></g><g><path d="M 78.12893477713423,178.97727272727278 h 6.626993068165249e-2 " /></g></g><g><g><path d="M 76.80353616350119,178.97727272727278 h 6.626993068165249e-2 " /></g><g><path d="M 76.6709963021379,178.97727272727278 h 6.626993068165249e-2 " /></g><g><path d="M 76.53845644077458,178.97727272727278 h 6.626993068165249e-2 " /></g><g><path d="M 76.40591657941128,178.97727272727278 h 6.626993068165249e-2 " /></g><g><path d="M 76.27337671804797,178.97727272727278 h 6.626993068165249e-2 " /></g><g><path d="M 76.14083685668467,178.97727272727278 h 6.626993068165249e-2 " /></g><g><path d="M 76.00829699532136,178.97727272727278 h 6.626993068165249e-2 " /></g><g><path d="M 75.87575713395806,178.97727272727278 h 6.626993068165249e-2 " /></g><g><path d="M 75.74321727259475,178.97727272727278 h 6.626993068165249e-2 " /></g><g><path d="M 75.61067741123145,178.97727272727278 h 6.626993068165249e-2 " /></g></g><g><g><path d="M 74.2852787975984,178.97727272727278 h 6.626993068165249e-2 " /></g><g><path d="M 74.1527389362351,178.97727272727278 h 6.626993068165249e-2 " /></g><g><path d="M 74.02019907487178,178.97727272727278 h 6.626993068165249e-2 " /></g><g><path d="M 73.88765921350848,178.97727272727278 h 6.626993068165249e-2 " /></g><g><path d="M 73.75511935214517,178.97727272727278 h 6.626993068165249e-2 " /></g><g><path d="M 73.62257949078187,178.97727272727278 h 6.626993068165249e-2 " /></g><g><path d="M 73.49003962941856,178.97727272727278 h 6.626993068165249e-2 " /></g><g><path d="M 73.35749976805526,178.97727272727278 h 6.626993068165249e-2 " /></g><g><path d="M 73.22495990669195,178.97727272727278 h 6.626993068165249e-2 " /></g><g><path d="M 73.09242004532865,178.97727272727278 h 6.626993068165249e-2 " /></g></g><g><g><path d="M 71.7670214316956,178.97727272727278 h 6.626993068165249e-2 " /></g><g><path d="M 71.6344815703323,178.97727272727278 h 6.626993068165249e-2 " /></g><g><path d="M 71.50194170896899,178.97727272727278 h 6.626993068165249e-2 " /></g><g><path d="M 71.36940184760569,178.97727272727278 h 6.626993068165249e-2 " /></g><g><path d="M 71.23686198624237,178.97727272727278 h 6.626993068165249e-2 " /></g><g><path d="M 71.10432212487908,178.97727272727278 h 6.626993068165249e-2 " /></g><g><path d="M 70.97178226351576,178.97727272727278 h 6.626993068165249e-2 " /></g><g><path d="M 70.83924240215246,178.97727272727278 h 6.626993068165249e-2 " /></g><g><path d="M 70.70670254078915,178.97727272727278 h 6.626993068165249e-2 " /></g><g><path d="M 70.57416267942585,178.97727272727278 h 6.626993068165249e-2 " /></g></g></g><g><g><g><path d="M 46.584447772667644,178.97727272727278 h 6.626993068165249e-2 " /></g><g><path d="M 46.45190791130434,178.97727272727278 h 6.626993068165249e-2 " /></g><g><path d="M 46.31936804994103,178.97727272727278 h 6.626993068165249e-2 " /></g><g><path d="M 46.186828188577735,178.97727272727278 h 6.626993068165249e-2 " /></g><g><path d="M 46.05428832721443,178.97727272727278 h 6.626993068165249e-2 " /></g><g><path d="M 45.921748465851124,178.97727272727278 h 6.626993068165249e-2 " /></g><g><path d="M 45.78920860448782,178.97727272727278 h 6.626993068165249e-2 " /></g><g><path d="M 45.65666874312451,178.97727272727278 h 6.626993068165249e-2 " /></g><g><path d="M 45.52412888176121,178.97727272727278 h 6.626993068165249e-2 " /></g><g><path d="M 45.3915890203979,178.97727272727278 h 6.626993068165249e-2 " /></g></g><g><g><path d="M 44.066190406764846,178.97727272727278 h 6.626993068165249e-2 " /></g><g><path d="M 43.93365054540154,178.97727272727278 h 6.626993068165249e-2 " /></g><g><path d="M 43.801110684038235,178.97727272727278 h 6.626993068165249e-2 " /></g><g><path d="M 43.66857082267494,178.97727272727278 h 6.626993068165249e-2 " /></g><g><path d="M 43.53603096131163,178.97727272727278 h 6.626993068165249e-2 " /></g><g><path d="M 43.403491099948326,178.97727272727278 h 6.626993068165249e-2 " /></g><g><path d="M 43.27095123858502,178.97727272727278 h 6.626993068165249e-2 " /></g><g><path d="M 43.138411377221715,178.97727272727278 h 6.626993068165249e-2 " /></g><g><path d="M 43.00587151585841,178.97727272727278 h 6.626993068165249e-2 " /></g><g><path d="M 42.873331654495104,178.97727272727278 h 6.626993068165249e-2 " /></g></g><g><g><path d="M 41.547933040862056,178.97727272727278 h 6.626993068165249e-2 " /></g><g><path d="M 41.41539317949875,178.97727272727278 h 6.626993068165249e-2 " /></g><g><path d="M 41.282853318135444,178.97727272727278 h 6.626993068165249e-2 " /></g><g><path d="M 41.150313456772146,178.97727272727278 h 6.626993068165249e-2 " /></g><g><path d="M 41.01777359540884,178.97727272727278 h 6.626993068165249e-2 " /></g><g><path d="M 40.885233734045535,178.97727272727278 h 6.626993068165249e-2 " /></g><g><path d="M 40.75269387268223,178.97727272727278 h 6.626993068165249e-2 " /></g><g><path d="M 40.620154011318924,178.97727272727278 h 6.626993068165249e-2 " /></g><g><path d="M 40.48761414995562,178.97727272727278 h 6.626993068165249e-2 " /></g><g><path d="M 40.35507428859231,178.97727272727278 h 6.626993068165249e-2 " /></g></g><g><g><path d="M 39.029675674959265,178.97727272727278 h 6.626993068165249e-2 " /></g><g><path d="M 38.89713581359596,178.97727272727278 h 6.626993068165249e-2 " /></g><g><path d="M 38.76459595223265,178.97727272727278 h 6.626993068165249e-2 " /></g><g><path d="M 38.632056090869355,178.97727272727278 h 6.626993068165249e-2 " /></g><g><path d="M 38.49951622950605,178.97727272727278 h 6.626993068165249e-2 " /></g><g><path d="M 38.366976368142744,178.97727272727278 h 6.626993068165249e-2 " /></g><g><path d="M 38.23443650677944,178.97727272727278 h 6.626993068165249e-2 " /></g><g><path d="M 38.10189664541613,178.97727272727278 h 6.626993068165249e-2 " /></g><g><path d="M 37.96935678405283,178.97727272727278 h 6.626993068165249e-2 " /></g><g><path d="M 37.83681692268952,178.97727272727278 h 6.626993068165249e-2 " /></g></g><g><g><path d="M 36.51141830905647,178.97727272727278 h 6.626993068165249e-2 " /></g><g><path d="M 36.37887844769316,178.97727272727278 h 6.626993068165249e-2 " /></g><g><path d="M 36.246338586329856,178.97727272727278 h 6.626993068165249e-2 " /></g><g><path d="M 36.11379872496656,178.97727272727278 h 6.626993068165249e-2 " /></g><g><path d="M 35.98125886360325,178.97727272727278 h 6.626993068165249e-2 " /></g><g><path d="M 35.848719002239946,178.97727272727278 h 6.626993068165249e-2 " /></g><g><path d="M 35.71617914087664,178.97727272727278 h 6.626993068165249e-2 " /></g><g><path d="M 35.583639279513335,178.97727272727278 h 6.626993068165249e-2 " /></g><g><path d="M 35.45109941815003,178.97727272727278 h 6.626993068165249e-2 " /></g><g><path d="M 35.318559556786724,178.97727272727278 h 6.626993068165249e-2 " /></g></g><g><g><path d="M 33.99316094315367,178.97727272727278 h 6.626993068165249e-2 " /></g><g><path d="M 33.86062108179036,178.97727272727278 h 6.626993068165249e-2 " /></g><g><path d="M 33.72808122042706,178.97727272727278 h 6.626993068165249e-2 " /></g><g><path d="M 33.59554135906376,178.97727272727278 h 6.626993068165249e-2 " /></g><g><path d="M 33.46300149770045,178.97727272727278 h 6.626993068165249e-2 " /></g><g><path d="M 33.33046163633715,178.97727272727278 h 6.626993068165249e-2 " /></g><g><path d="M 33.19792177497384,178.97727272727278 h 6.626993068165249e-2 " /></g><g><path d="M 33.06538191361054,178.97727272727278 h 6.626993068165249e-2 " /></g><g><path d="M 32.93284205224723,178.97727272727278 h 6.626993068165249e-2 " /></g><g><path d="M 32.800302190883926,178.97727272727278 h 6.626993068165249e-2 " /></g></g><g><g><path d="M 31.47490357725088,178.97727272727278 h 6.626993068165249e-2 " /></g><g><path d="M 31.342363715887576,178.97727272727278 h 6.626993068165249e-2 " /></g><g><path d="M 31.20982385452427,178.97727272727278 h 6.626993068165249e-2 " /></g><g><path d="M 31.077283993160965,178.97727272727278 h 6.626993068165249e-2 " /></g><g><path d="M 30.94474413179766,178.97727272727278 h 6.626993068165249e-2 " /></g><g><path d="M 30.812204270434354,178.97727272727278 h 6.626993068165249e-2 " /></g><g><path d="M 30.67966440907105,178.97727272727278 h 6.626993068165249e-2 " /></g><g><path d="M 30.547124547707746,178.97727272727278 h 6.626993068165249e-2 " /></g><g><path d="M 30.41458468634444,178.97727272727278 h 6.626993068165249e-2 " /></g><g><path d="M 30.282044824981135,178.97727272727278 h 6.626993068165249e-2 " /></g></g><g><g><path d="M 28.956646211348083,178.97727272727278 h 6.626993068165249e-2 " /></g><g><path d="M 28.824106349984778,178.97727272727278 h 6.626993068165249e-2 " /></g><g><path d="M 28.691566488621472,178.97727272727278 h 6.626993068165249e-2 " /></g><g><path d="M 28.559026627258167,178.97727272727278 h 6.626993068165249e-2 " /></g><g><path d="M 28.42648676589486,178.97727272727278 h 6.626993068165249e-2 " /></g><g><path d="M 28.293946904531555,178.97727272727278 h 6.626993068165249e-2 " /></g><g><path d="M 28.161407043168253,178.97727272727278 h 6.626993068165249e-2 " /></g><g><path d="M 28.028867181804948,178.97727272727278 h 6.626993068165249e-2 " /></g><g><path d="M 27.896327320441642,178.97727272727278 h 6.626993068165249e-2 " /></g><g><path d="M 27.763787459078337,178.97727272727278 h 6.626993068165249e-2 " /></g></g><g><g><path d="M 26.43838884544529,178.97727272727278 h 6.626993068165249e-2 " /></g><g><path d="M 26.305848984081983,178.97727272727278 h 6.626993068165249e-2 " /></g><g><path d="M 26.173309122718678,178.97727272727278 h 6.626993068165249e-2 " /></g><g><path d="M 26.040769261355372,178.97727272727278 h 6.626993068165249e-2 " /></g><g><path d="M 25.908229399992067,178.97727272727278 h 6.626993068165249e-2 " /></g><g><path d="M 25.77568953862876,178.97727272727278 h 6.626993068165249e-2 " /></g><g><path d="M 25.64314967726546,178.97727272727278 h 6.626993068165249e-2 " /></g><g><path d="M 25.510609815902153,178.97727272727278 h 6.626993068165249e-2 " /></g><g><path d="M 25.378069954538848,178.97727272727278 h 6.626993068165249e-2 " /></g><g><path d="M 25.245530093175542,178.97727272727278 h 6.626993068165249e-2 " /></g></g><g><g><path d="M 23.920131479542494,178.97727272727278 h 6.626993068165249e-2 " /></g><g><path d="M 23.78759161817919,178.97727272727278 h 6.626993068165249e-2 " /></g><g><path d="M 23.655051756815883,178.97727272727278 h 6.626993068165249e-2 " /></g><g><path d="M 23.522511895452578,178.97727272727278 h 6.626993068165249e-2 " /></g><g><path d="M 23.389972034089272,178.97727272727278 h 6.626993068165249e-2 " /></g><g><path d="M 23.257432172725967,178.97727272727278 h 6.626993068165249e-2 " /></g><g><path d="M 23.124892311362665,178.97727272727278 h 6.626993068165249e-2 " /></g><g><path d="M 22.99235244999936,178.97727272727278 h 6.626993068165249e-2 " /></g><g><path d="M 22.859812588636053,178.97727272727278 h 6.626993068165249e-2 " /></g><g><path d="M 22.727272727272748,178.97727272727278 h 6.626993068165249e-2 " /></g></g></g></g><g><g><g><path d="M 476.0135985897758,122.15909090909096 h 1.2591286829513975 " /></g><g><path d="M 473.4953412238731,122.15909090909096 h 1.2591286829513975 " /></g><g><path d="M 470.9770838579703,122.15909090909096 h 1.2591286829513975 " /></g><g><path d="M 468.4588264920675,122.15909090909096 h 1.2591286829513975 " /></g><g><path d="M 465.9405691261647,122.15909090909096 h 1.2591286829513975 " /></g><g><path d="M 463.4223117602619,122.15909090909096 h 1.2591286829513975 " /></g><g><path d="M 460.9040543943591,122.15909090909096 h 1.2591286829513975 " /></g><g><path d="M 458.3857970284563,122.15909090909096 h 1.2591286829513975 " /></g><g><path d="M 455.8675396625535,122.15909090909096 h 1.2591286829513975 " /></g><g><path d="M 453.3492822966507,122.15909090909096 h 1.2591286829513975 " /></g></g><g><g><path d="M 428.1667086376227,122.15909090909096 h 1.2591286829513975 " /></g><g><path d="M 425.64845127172,122.15909090909096 h 1.2591286829513975 " /></g><g><path d="M 423.1301939058172,122.15909090909096 h 1.2591286829513975 " /></g><g><path d="M 420.6119365399144,122.15909090909096 h 1.2591286829513975 " /></g><g><path d="M 418.0936791740116,122.15909090909096 h 1.2591286829513975 " /></g><g><path d="M 415.5754218081088,122.15909090909096 h 1.2591286829513975 " /></g><g><path d="M 413.057164442206,122.15909090909096 h 1.2591286829513975 " /></g><g><path d="M 410.5389070763032,122.15909090909096 h 1.2591286829513975 " /></g><g><path d="M 408.0206497104004,122.15909090909096 h 1.2591286829513975 " /></g><g><path d="M 405.5023923444976,122.15909090909096 h 1.2591286829513975 " /></g></g><g><g><path d="M 380.3198186854696,122.15909090909096 h 1.2591286829513975 " /></g><g><path d="M 377.8015613195669,122.15909090909096 h 1.2591286829513975 " /></g><g><path d="M 375.2833039536641,122.15909090909096 h 1.2591286829513975 " /></g><g><path d="M 372.7650465877613,122.15909090909096 h 1.2591286829513975 " /></g><g><path d="M 370.2467892218585,122.15909090909096 h 1.2591286829513975 " /></g><g><path d="M 367.7285318559557,122.15909090909096 h 1.2591286829513975 " /></g><g><path d="M 365.2102744900529,122.15909090909096 h 1.2591286829513975 " /></g><g><path d="M 362.6920171241501,122.15909090909096 h 1.2591286829513975 " /></g><g><path d="M 360.1737597582473,122.15909090909096 h 1.2591286829513975 " /></g><g><path d="M 357.6555023923445,122.15909090909096 h 1.2591286829513975 " /></g></g><g><g><path d="M 332.4729287333165,122.15909090909096 h 1.2591286829513975 " /></g><g><path d="M 329.95467136741377,122.15909090909096 h 1.2591286829513975 " /></g><g><path d="M 327.43641400151097,122.15909090909096 h 1.2591286829513975 " /></g><g><path d="M 324.91815663560817,122.15909090909096 h 1.2591286829513975 " /></g><g><path d="M 322.3998992697054,122.15909090909096 h 1.2591286829513975 " /></g><g><path d="M 319.8816419038026,122.15909090909096 h 1.2591286829513975 " /></g><g><path d="M 317.3633845378998,122.15909090909096 h 1.2591286829513975 " /></g><g><path d="M 314.845127171997,122.15909090909096 h 1.2591286829513975 " /></g><g><path d="M 312.3268698060942,122.15909090909096 h 1.2591286829513975 " /></g><g><path d="M 309.8086124401914,122.15909090909096 h 1.2591286829513975 " /></g></g><g><g><path d="M 284.6260387811634,122.15909090909096 h 1.2591286829513975 " /></g><g><path d="M 282.10778141526066,122.15909090909096 h 1.2591286829513975 " /></g><g><path d="M 279.58952404935786,122.15909090909096 h 1.2591286829513975 " /></g><g><path d="M 277.07126668345506,122.15909090909096 h 1.2591286829513975 " /></g><g><path d="M 274.55300931755227,122.15909090909096 h 1.2591286829513975 " /></g><g><path d="M 272.03475195164947,122.15909090909096 h 1.2591286829513975 " /></g><g><path d="M 269.51649458574667,122.15909090909096 h 1.2591286829513975 " /></g><g><path d="M 266.9982372198439,122.15909090909096 h 1.2591286829513975 " /></g><g><path d="M 264.4799798539411,122.15909090909096 h 1.2591286829513975 " /></g><g><path d="M 261.9617224880383,122.15909090909096 h 1.2591286829513975 " /></g></g><g><g><path d="M 236.77914882901032,122.15909090909096 h 1.2591286829513975 " /></g><g><path d="M 234.26089146310753,122.15909090909096 h 1.2591286829513975 " /></g><g><path d="M 231.74263409720473,122.15909090909096 h 1.2591286829513975 " /></g><g><path d="M 229.22437673130193,122.15909090909096 h 1.2591286829513975 " /></g><g><path d="M 226.70611936539913,122.15909090909096 h 1.2591286829513975 " /></g><g><path d="M 224.18786199949636,122.15909090909096 h 1.2591286829513975 " /></g><g><path d="M 221.66960463359356,122.15909090909096 h 1.2591286829513975 " /></g><g><path d="M 219.15134726769077,122.15909090909096 h 1.2591286829513975 " /></g><g><path d="M 216.63308990178797,122.15909090909096 h 1.2591286829513975 " /></g><g><path d="M 214.11483253588517,122.15909090909096 h 1.2591286829513975 " /></g></g><g><g><path d="M 188.93225887685722,122.15909090909096 h 1.2591286829513975 " /></g><g><path d="M 186.41400151095442,122.15909090909096 h 1.2591286829513975 " /></g><g><path d="M 183.89574414505162,122.15909090909096 h 1.2591286829513975 " /></g><g><path d="M 181.37748677914882,122.15909090909096 h 1.2591286829513975 " /></g><g><path d="M 178.85922941324603,122.15909090909096 h 1.2591286829513975 " /></g><g><path d="M 176.34097204734326,122.15909090909096 h 1.2591286829513975 " /></g><g><path d="M 173.82271468144046,122.15909090909096 h 1.2591286829513975 " /></g><g><path d="M 171.30445731553766,122.15909090909096 h 1.2591286829513975 " /></g><g><path d="M 168.78619994963486,122.15909090909096 h 1.2591286829513975 " /></g><g><path d="M 166.26794258373207,122.15909090909096 h 1.2591286829513975 " /></g></g><g><g><path d="M 141.0853689247041,122.15909090909096 h 1.2591286829513975 " /></g><g><path d="M 138.56711155880132,122.15909090909096 h 1.2591286829513975 " /></g><g><path d="M 136.04885419289852,122.15909090909096 h 1.2591286829513975 " /></g><g><path d="M 133.53059682699572,122.15909090909096 h 1.2591286829513975 " /></g><g><path d="M 131.01233946109292,122.15909090909096 h 1.2591286829513975 " /></g><g><path d="M 128.49408209519015,122.15909090909096 h 1.2591286829513975 " /></g><g><path d="M 125.97582472928734,122.15909090909096 h 1.2591286829513975 " /></g><g><path d="M 123.45756736338456,122.15909090909096 h 1.2591286829513975 " /></g><g><path d="M 120.93930999748176,122.15909090909096 h 1.2591286829513975 " /></g><g><path d="M 118.42105263157896,122.15909090909096 h 1.2591286829513975 " /></g></g><g><g><path d="M 93.23847897255101,122.15909090909096 h 1.2591286829513975 " /></g><g><path d="M 90.72022160664821,122.15909090909096 h 1.2591286829513975 " /></g><g><path d="M 88.20196424074541,122.15909090909096 h 1.2591286829513975 " /></g><g><path d="M 85.68370687484263,122.15909090909096 h 1.2591286829513975 " /></g><g><path d="M 83.16544950893983,122.15909090909096 h 1.2591286829513975 " /></g><g><path d="M 80.64719214303703,122.15909090909096 h 1.2591286829513975 " /></g><g><path d="M 78.12893477713423,122.15909090909096 h 1.2591286829513975 " /></g><g><path d="M 75.61067741123145,122.15909090909096 h 1.2591286829513975 " /></g><g><path d="M 73.09242004532865,122.15909090909096 h 1.2591286829513975 " /></g><g><path d="M 70.57416267942585,122.15909090909096 h 1.2591286829513975 " /></g></g><g><g><path d="M 45.3915890203979,122.15909090909096 h 1.2591286829513975 " /></g><g><path d="M 42.873331654495104,122.15909090909096 h 1.2591286829513975 " /></g><g><path d="M 40.35507428859231,122.15909090909096 h 1.2591286829513975 " /></g><g><path d="M 37.83681692268952,122.15909090909096 h 1.2591286829513975 " /></g><g><path d="M 35.318559556786724,122.15909090909096 h 1.2591286829513975 " /></g><g><path d="M 32.800302190883926,122.15909090909096 h 1.2591286829513975 " /></g><g><path d="M 30.282044824981135,122.15909090909096 h 1.2591286829513975 " /></g><g><path d="M 27.763787459078337,122.15909090909096 h 1.2591286829513975 " /></g><g><path d="M 25.245530093175542,122.15909090909096 h 1.2591286829513975 " /></g><g><path d="M 22.727272727272748,122.15909090909096 h 1.2591286829513975 " /></g></g></g></g><g><g><path d="M 453.3492822966507,65.34090909090915 h 23.923444976076553 " /></g><g><path d="M 405.5023923444976,65.34090909090915 h 23.923444976076553 " /></g><g><path d="M 357.6555023923445,65.34090909090915 h 23.923444976076553 " /></g><g><path d="M 309.8086124401914,65.34090909090915 h 23.923444976076553 " /></g><g><path d="M 261.9617224880383,65.34090909090915 h 23.923444976076553 " /></g><g><path d="M 214.11483253588517,65.34090909090915 h 23.923444976076553 " /></g><g><path d="M 166.26794258373207,65.34090909090915 h 23.923444976076553 " /></g><g><path d="M 118.42105263157896,65.34090909090915 h 23.923444976076553 " /></g><g><path d="M 70.57416267942585,65.34090909090915 h 23.923444976076553 " /></g><g><path d="M 22.727272727272748,65.34090909090915 h 23.923444976076553 " /></g></g><path d="M 22.727272727272748,8.522727272727337 h 454.5454545454545 " /></g></g></g></g></svg>