<?xml version="1.0" encoding="UTF-8"?>
<!DOCTYPE svg PUBLIC "-//W3C//DTD SVG 1.1//EN"
    "http://www.w3.org/Graphics/SVG/1.1/DTD/svg11.dtd">
<svg xmlns="http://www.w3.org/2000/svg" xmlns:xlink="http://www.w3.org/1999/xlink" version="1.1" width="500.0" height="500.0" font-size="1" viewBox="0 0 500 500" stroke="rgb(0,0,0)" stroke-opacity="1"><g><g fill="rgb(0,0,0)" fill-opacity="0.0"><g stroke="rgb(0,0,0)" stroke-opacity="1.0" stroke-width="2.0" stroke-linecap="butt" stroke-linejoin="miter" font-size="1.0em" stroke-miterlimit="10.0"><g fill="rgb(255,255,255)" fill-opacity="1.0" stroke-width="0.0"><g fill="rgb(255,255,255)" fill-opacity="1.0"><g fill="rgb(255,255,255)" fill-opacity="1.0"><path d="M 500.0,500.0 l -5.551115123125783e-14,-500.0 h -500.0 l -5.551115123125783e-14,500.0 Z" /></g></g></g><g><g><g><g><g><g><g><g><g><g><path d="M 477.20344736805635,477.27272727272725 h 6.927990467085114e-2 " /></g><path d="M 477.06488755871464,477.27272727272725 h 6.927990467085114e-2 " /></g><g><g><path d="M 476.78776794003124,477.27272727272725 h 6.927990467085114e-2 " /></g><path d="M 476.64920813068954,477.27272727272725 h 6.927990467085114e-2 " /></g></g><g><g><g><path d="M 475.95640908398104,477.27272727272725 h 6.927990467085114e-2 " /></g><path d="M 475.81784927463934,477.27272727272725 h 6.927990467085114e-2 " /></g><g><g><path d="M 475.54072965595594,477.27272727272725 h 6.927990467085114e-2 " /></g><path d="M 475.40216984661424,477.27272727272725 h 6.927990467085114e-2 " /></g></g></g><g><g><g><g><path d="M 473.4623325158304,477.27272727272725 h 6.927990467085114e-2 " /></g><path d="M 473.3237727064887,477.27272727272725 h 6.927990467085114e-2 " /></g><g><g><path d="M 473.0466530878053,477.27272727272725 h 6.927990467085114e-2 " /></g><path d="M 472.9080932784636,477.27272727272725 h 6.927990467085114e-2 " /></g></g><g><g><g><path d="M 472.2152942317551,477.27272727272725 h 6.927990467085114e-2 " /></g><path d="M 472.0767344224134,477.27272727272725 h 6.927990467085114e-2 " /></g><g><g><path d="M 471.79961480373,477.27272727272725 h 6.927990467085114e-2 " /></g><path d="M 471.6610549943883,477.27272727272725 h 6.927990467085114e-2 " /></g></g></g></g><g><g><g><g><g><path d="M 465.98010281137846,477.27272727272725 h 6.927990467085114e-2 " /></g><path d="M 465.84154300203676,477.27272727272725 h 6.927990467085114e-2 " /></g><g><g><path d="M 465.56442338335336,477.27272727272725 h 6.927990467085114e-2 " /></g><path d="M 465.42586357401166,477.27272727272725 h 6.927990467085114e-2 " /></g></g><g><g><g><path d="M 464.73306452730316,477.27272727272725 h 6.927990467085114e-2 " /></g><path d="M 464.59450471796146,477.27272727272725 h 6.927990467085114e-2 " /></g><g><g><path d="M 464.31738509927806,477.27272727272725 h 6.927990467085114e-2 " /></g><path d="M 464.17882528993636,477.27272727272725 h 6.927990467085114e-2 " /></g></g></g><g><g><g><g><path d="M 462.2389879591525,477.27272727272725 h 6.927990467085114e-2 " /></g><path d="M 462.1004281498108,477.27272727272725 h 6.927990467085114e-2 " /></g><g><g><path d="M 461.8233085311274,477.27272727272725 h 6.927990467085114e-2 " /></g><path d="M 461.6847487217857,477.27272727272725 h 6.927990467085114e-2 " /></g></g><g><g><g><path d="M 460.9919496750772,477.27272727272725 h 6.927990467085114e-2 " /></g><path d="M 460.8533898657355,477.27272727272725 h 6.927990467085114e-2 " /></g><g><g><path d="M 460.5762702470521,477.27272727272725 h 6.927990467085114e-2 " /></g><path d="M 460.4377104377104,477.27272727272725 h 6.927990467085114e-2 " /></g></g></g></g></g><g><g><g><g><g><g><path d="M 443.5334136980227,477.27272727272725 h 6.927990467085114e-2 " /></g><path d="M 443.394853888681,477.27272727272725 h 6.927990467085114e-2 " /></g><g><g><path d="M 443.1177342699976,477.27272727272725 h 6.927990467085114e-2 " /></g><path d="M 442.9791744606559,477.27272727272725 h 6.927990467085114e-2 " /></g></g><g><g><g><path d="M 442.2863754139474,477.27272727272725 h 6.927990467085114e-2 " /></g><path d="M 442.1478156046057,477.27272727272725 h 6.927990467085114e-2 " /></g><g><g><path d="M 441.8706959859223,477.27272727272725 h 6.927990467085114e-2 " /></g><path d="M 441.7321361765806,477.27272727272725 h 6.927990467085114e-2 " /></g></g></g><g><g><g><g><path d="M 439.7922988457967,477.27272727272725 h 6.927990467085114e-2 " /></g><path d="M 439.653739036455,477.27272727272725 h 6.927990467085114e-2 " /></g><g><g><path d="M 439.3766194177716,477.27272727272725 h 6.927990467085114e-2 " /></g><path d="M 439.2380596084299,477.27272727272725 h 6.927990467085114e-2 " /></g></g><g><g><g><path d="M 438.5452605617214,477.27272727272725 h 6.927990467085114e-2 " /></g><path d="M 438.4067007523797,477.27272727272725 h 6.927990467085114e-2 " /></g><g><g><path d="M 438.1295811336963,477.27272727272725 h 6.927990467085114e-2 " /></g><path d="M 437.9910213243546,477.27272727272725 h 6.927990467085114e-2 " /></g></g></g></g><g><g><g><g><g><path d="M 432.3100691413448,477.27272727272725 h 6.927990467085114e-2 " /></g><path d="M 432.1715093320031,477.27272727272725 h 6.927990467085114e-2 " /></g><g><g><path d="M 431.8943897133197,477.27272727272725 h 6.927990467085114e-2 " /></g><path d="M 431.755829903978,477.27272727272725 h 6.927990467085114e-2 " /></g></g><g><g><g><path d="M 431.0630308572695,477.27272727272725 h 6.927990467085114e-2 " /></g><path d="M 430.9244710479278,477.27272727272725 h 6.927990467085114e-2 " /></g><g><g><path d="M 430.6473514292444,477.27272727272725 h 6.927990467085114e-2 " /></g><path d="M 430.5087916199027,477.27272727272725 h 6.927990467085114e-2 " /></g></g></g><g><g><g><g><path d="M 428.56895428911884,477.27272727272725 h 6.927990467085114e-2 " /></g><path d="M 428.43039447977714,477.27272727272725 h 6.927990467085114e-2 " /></g><g><g><path d="M 428.15327486109373,477.27272727272725 h 6.927990467085114e-2 " /></g><path d="M 428.01471505175203,477.27272727272725 h 6.927990467085114e-2 " /></g></g><g><g><g><path d="M 427.32191600504353,477.27272727272725 h 6.927990467085114e-2 " /></g><path d="M 427.18335619570183,477.27272727272725 h 6.927990467085114e-2 " /></g><g><g><path d="M 426.90623657701843,477.27272727272725 h 6.927990467085114e-2 " /></g><path d="M 426.76767676767673,477.27272727272725 h 6.927990467085114e-2 " /></g></g></g></g></g></g><g><g><g><g><g><g><g><path d="M 376.19334635795536,477.27272727272725 h 6.927990467085114e-2 " /></g><path d="M 376.05478654861366,477.27272727272725 h 6.927990467085114e-2 " /></g><g><g><path d="M 375.77766692993026,477.27272727272725 h 6.927990467085114e-2 " /></g><path d="M 375.63910712058856,477.27272727272725 h 6.927990467085114e-2 " /></g></g><g><g><g><path d="M 374.94630807388006,477.27272727272725 h 6.927990467085114e-2 " /></g><path d="M 374.80774826453836,477.27272727272725 h 6.927990467085114e-2 " /></g><g><g><path d="M 374.53062864585496,477.27272727272725 h 6.927990467085114e-2 " /></g><path d="M 374.39206883651326,477.27272727272725 h 6.927990467085114e-2 " /></g></g></g><g><g><g><g><path d="M 372.4522315057294,477.27272727272725 h 6.927990467085114e-2 " /></g><path d="M 372.3136716963877,477.27272727272725 h 6.927990467085114e-2 " /></g><g><g><path d="M 372.0365520777043,477.27272727272725 h 6.927990467085114e-2 " /></g><path d="M 371.8979922683626,477.27272727272725 h 6.927990467085114e-2 " /></g></g><g><g><g><path d="M 371.2051932216541,477.27272727272725 h 6.927990467085114e-2 " /></g><path d="M 371.0666334123124,477.27272727272725 h 6.927990467085114e-2 " /></g><g><g><path d="M 370.789513793629,477.27272727272725 h 6.927990467085114e-2 " /></g><path d="M 370.6509539842873,477.27272727272725 h 6.927990467085114e-2 " /></g></g></g></g><g><g><g><g><g><path d="M 364.9700018012775,477.27272727272725 h 6.927990467085114e-2 " /></g><path d="M 364.8314419919358,477.27272727272725 h 6.927990467085114e-2 " /></g><g><g><path d="M 364.5543223732524,477.27272727272725 h 6.927990467085114e-2 " /></g><path d="M 364.4157625639107,477.27272727272725 h 6.927990467085114e-2 " /></g></g><g><g><g><path d="M 363.7229635172022,477.27272727272725 h 6.927990467085114e-2 " /></g><path d="M 363.5844037078605,477.27272727272725 h 6.927990467085114e-2 " /></g><g><g><path d="M 363.3072840891771,477.27272727272725 h 6.927990467085114e-2 " /></g><path d="M 363.1687242798354,477.27272727272725 h 6.927990467085114e-2 " /></g></g></g><g><g><g><g><path d="M 361.2288869490515,477.27272727272725 h 6.927990467085114e-2 " /></g><path d="M 361.0903271397098,477.27272727272725 h 6.927990467085114e-2 " /></g><g><g><path d="M 360.8132075210264,477.27272727272725 h 6.927990467085114e-2 " /></g><path d="M 360.6746477116847,477.27272727272725 h 6.927990467085114e-2 " /></g></g><g><g><g><path d="M 359.9818486649762,477.27272727272725 h 6.927990467085114e-2 " /></g><path d="M 359.8432888556345,477.27272727272725 h 6.927990467085114e-2 " /></g><g><g><path d="M 359.5661692369511,477.27272727272725 h 6.927990467085114e-2 " /></g><path d="M 359.4276094276094,477.27272727272725 h 6.927990467085114e-2 " /></g></g></g></g></g><g><g><g><g><g><g><path d="M 342.5233126879217,477.27272727272725 h 6.927990467085114e-2 " /></g><path d="M 342.38475287858,477.27272727272725 h 6.927990467085114e-2 " /></g><g><g><path d="M 342.1076332598966,477.27272727272725 h 6.927990467085114e-2 " /></g><path d="M 341.9690734505549,477.27272727272725 h 6.927990467085114e-2 " /></g></g><g><g><g><path d="M 341.2762744038464,477.27272727272725 h 6.927990467085114e-2 " /></g><path d="M 341.1377145945047,477.27272727272725 h 6.927990467085114e-2 " /></g><g><g><path d="M 340.8605949758213,477.27272727272725 h 6.927990467085114e-2 " /></g><path d="M 340.7220351664796,477.27272727272725 h 6.927990467085114e-2 " /></g></g></g><g><g><g><g><path d="M 338.78219783569574,477.27272727272725 h 6.927990467085114e-2 " /></g><path d="M 338.64363802635404,477.27272727272725 h 6.927990467085114e-2 " /></g><g><g><path d="M 338.36651840767064,477.27272727272725 h 6.927990467085114e-2 " /></g><path d="M 338.22795859832894,477.27272727272725 h 6.927990467085114e-2 " /></g></g><g><g><g><path d="M 337.53515955162044,477.27272727272725 h 6.927990467085114e-2 " /></g><path d="M 337.39659974227874,477.27272727272725 h 6.927990467085114e-2 " /></g><g><g><path d="M 337.11948012359534,477.27272727272725 h 6.927990467085114e-2 " /></g><path d="M 336.98092031425364,477.27272727272725 h 6.927990467085114e-2 " /></g></g></g></g><g><g><g><g><g><path d="M 331.2999681312438,477.27272727272725 h 6.927990467085114e-2 " /></g><path d="M 331.1614083219021,477.27272727272725 h 6.927990467085114e-2 " /></g><g><g><path d="M 330.8842887032187,477.27272727272725 h 6.927990467085114e-2 " /></g><path d="M 330.745728893877,477.27272727272725 h 6.927990467085114e-2 " /></g></g><g><g><g><path d="M 330.0529298471685,477.27272727272725 h 6.927990467085114e-2 " /></g><path d="M 329.9143700378268,477.27272727272725 h 6.927990467085114e-2 " /></g><g><g><path d="M 329.6372504191434,477.27272727272725 h 6.927990467085114e-2 " /></g><path d="M 329.4986906098017,477.27272727272725 h 6.927990467085114e-2 " /></g></g></g><g><g><g><g><path d="M 327.55885327901785,477.27272727272725 h 6.927990467085114e-2 " /></g><path d="M 327.42029346967615,477.27272727272725 h 6.927990467085114e-2 " /></g><g><g><path d="M 327.14317385099275,477.27272727272725 h 6.927990467085114e-2 " /></g><path d="M 327.00461404165105,477.27272727272725 h 6.927990467085114e-2 " /></g></g><g><g><g><path d="M 326.31181499494255,477.27272727272725 h 6.927990467085114e-2 " /></g><path d="M 326.17325518560085,477.27272727272725 h 6.927990467085114e-2 " /></g><g><g><path d="M 325.89613556691745,477.27272727272725 h 6.927990467085114e-2 " /></g><path d="M 325.75757575757575,477.27272727272725 h 6.927990467085114e-2 " /></g></g></g></g></g></g></g><g><g><g><g><g><g><g><g><path d="M 174.17314433775337,477.27272727272725 h 6.927990467085114e-2 " /></g><path d="M 174.03458452841167,477.27272727272725 h 6.927990467085114e-2 " /></g><g><g><path d="M 173.75746490972827,477.27272727272725 h 6.927990467085114e-2 " /></g><path d="M 173.61890510038657,477.27272727272725 h 6.927990467085114e-2 " /></g></g><g><g><g><path d="M 172.92610605367804,477.27272727272725 h 6.927990467085114e-2 " /></g><path d="M 172.78754624433634,477.27272727272725 h 6.927990467085114e-2 " /></g><g><g><path d="M 172.51042662565294,477.27272727272725 h 6.927990467085114e-2 " /></g><path d="M 172.37186681631124,477.27272727272725 h 6.927990467085114e-2 " /></g></g></g><g><g><g><g><path d="M 170.4320294855274,477.27272727272725 h 6.927990467085114e-2 " /></g><path d="M 170.2934696761857,477.27272727272725 h 6.927990467085114e-2 " /></g><g><g><path d="M 170.0163500575023,477.27272727272725 h 6.927990467085114e-2 " /></g><path d="M 169.8777902481606,477.27272727272725 h 6.927990467085114e-2 " /></g></g><g><g><g><path d="M 169.18499120145208,477.27272727272725 h 6.927990467085114e-2 " /></g><path d="M 169.04643139211038,477.27272727272725 h 6.927990467085114e-2 " /></g><g><g><path d="M 168.76931177342698,477.27272727272725 h 6.927990467085114e-2 " /></g><path d="M 168.63075196408528,477.27272727272725 h 6.927990467085114e-2 " /></g></g></g></g><g><g><g><g><g><path d="M 162.94979978107548,477.27272727272725 h 6.927990467085114e-2 " /></g><path d="M 162.81123997173378,477.27272727272725 h 6.927990467085114e-2 " /></g><g><g><path d="M 162.53412035305038,477.27272727272725 h 6.927990467085114e-2 " /></g><path d="M 162.39556054370868,477.27272727272725 h 6.927990467085114e-2 " /></g></g><g><g><g><path d="M 161.70276149700015,477.27272727272725 h 6.927990467085114e-2 " /></g><path d="M 161.56420168765845,477.27272727272725 h 6.927990467085114e-2 " /></g><g><g><path d="M 161.28708206897505,477.27272727272725 h 6.927990467085114e-2 " /></g><path d="M 161.14852225963335,477.27272727272725 h 6.927990467085114e-2 " /></g></g></g><g><g><g><g><path d="M 159.20868492884952,477.27272727272725 h 6.927990467085114e-2 " /></g><path d="M 159.07012511950782,477.27272727272725 h 6.927990467085114e-2 " /></g><g><g><path d="M 158.79300550082442,477.27272727272725 h 6.927990467085114e-2 " /></g><path d="M 158.65444569148272,477.27272727272725 h 6.927990467085114e-2 " /></g></g><g><g><g><path d="M 157.9616466447742,477.27272727272725 h 6.927990467085114e-2 " /></g><path d="M 157.8230868354325,477.27272727272725 h 6.927990467085114e-2 " /></g><g><g><path d="M 157.5459672167491,477.27272727272725 h 6.927990467085114e-2 " /></g><path d="M 157.4074074074074,477.27272727272725 h 6.927990467085114e-2 " /></g></g></g></g></g><g><g><g><g><g><g><path d="M 140.5031106677197,477.27272727272725 h 6.927990467085114e-2 " /></g><path d="M 140.364550858378,477.27272727272725 h 6.927990467085114e-2 " /></g><g><g><path d="M 140.0874312396946,477.27272727272725 h 6.927990467085114e-2 " /></g><path d="M 139.9488714303529,477.27272727272725 h 6.927990467085114e-2 " /></g></g><g><g><g><path d="M 139.25607238364438,477.27272727272725 h 6.927990467085114e-2 " /></g><path d="M 139.11751257430268,477.27272727272725 h 6.927990467085114e-2 " /></g><g><g><path d="M 138.84039295561928,477.27272727272725 h 6.927990467085114e-2 " /></g><path d="M 138.70183314627758,477.27272727272725 h 6.927990467085114e-2 " /></g></g></g><g><g><g><g><path d="M 136.76199581549375,477.27272727272725 h 6.927990467085114e-2 " /></g><path d="M 136.62343600615205,477.27272727272725 h 6.927990467085114e-2 " /></g><g><g><path d="M 136.34631638746865,477.27272727272725 h 6.927990467085114e-2 " /></g><path d="M 136.20775657812695,477.27272727272725 h 6.927990467085114e-2 " /></g></g><g><g><g><path d="M 135.51495753141842,477.27272727272725 h 6.927990467085114e-2 " /></g><path d="M 135.37639772207672,477.27272727272725 h 6.927990467085114e-2 " /></g><g><g><path d="M 135.09927810339332,477.27272727272725 h 6.927990467085114e-2 " /></g><path d="M 134.96071829405162,477.27272727272725 h 6.927990467085114e-2 " /></g></g></g></g><g><g><g><g><g><path d="M 129.27976611104182,477.27272727272725 h 6.927990467085114e-2 " /></g><path d="M 129.14120630170012,477.27272727272725 h 6.927990467085114e-2 " /></g><g><g><path d="M 128.86408668301672,477.27272727272725 h 6.927990467085114e-2 " /></g><path d="M 128.72552687367502,477.27272727272725 h 6.927990467085114e-2 " /></g></g><g><g><g><path d="M 128.03272782696652,477.27272727272725 h 6.927990467085114e-2 " /></g><path d="M 127.8941680176248,477.27272727272725 h 6.927990467085114e-2 " /></g><g><g><path d="M 127.6170483989414,477.27272727272725 h 6.927990467085114e-2 " /></g><path d="M 127.4784885895997,477.27272727272725 h 6.927990467085114e-2 " /></g></g></g><g><g><g><g><path d="M 125.53865125881586,477.27272727272725 h 6.927990467085114e-2 " /></g><path d="M 125.40009144947416,477.27272727272725 h 6.927990467085114e-2 " /></g><g><g><path d="M 125.12297183079076,477.27272727272725 h 6.927990467085114e-2 " /></g><path d="M 124.98441202144906,477.27272727272725 h 6.927990467085114e-2 " /></g></g><g><g><g><path d="M 124.29161297474054,477.27272727272725 h 6.927990467085114e-2 " /></g><path d="M 124.15305316539884,477.27272727272725 h 6.927990467085114e-2 " /></g><g><g><path d="M 123.87593354671544,477.27272727272725 h 6.927990467085114e-2 " /></g><path d="M 123.73737373737374,477.27272727272725 h 6.927990467085114e-2 " /></g></g></g></g></g></g><g><g><g><g><g><g><g><path d="M 73.16304332765237,477.27272727272725 h 6.927990467085114e-2 " /></g><path d="M 73.02448351831067,477.27272727272725 h 6.927990467085114e-2 " /></g><g><g><path d="M 72.74736389962727,477.27272727272725 h 6.927990467085114e-2 " /></g><path d="M 72.60880409028557,477.27272727272725 h 6.927990467085114e-2 " /></g></g><g><g><g><path d="M 71.91600504357706,477.27272727272725 h 6.927990467085114e-2 " /></g><path d="M 71.77744523423536,477.27272727272725 h 6.927990467085114e-2 " /></g><g><g><path d="M 71.50032561555196,477.27272727272725 h 6.927990467085114e-2 " /></g><path d="M 71.36176580621026,477.27272727272725 h 6.927990467085114e-2 " /></g></g></g><g><g><g><g><path d="M 69.42192847542641,477.27272727272725 h 6.927990467085114e-2 " /></g><path d="M 69.28336866608471,477.27272727272725 h 6.927990467085114e-2 " /></g><g><g><path d="M 69.00624904740131,477.27272727272725 h 6.927990467085114e-2 " /></g><path d="M 68.86768923805961,477.27272727272725 h 6.927990467085114e-2 " /></g></g><g><g><g><path d="M 68.1748901913511,477.27272727272725 h 6.927990467085114e-2 " /></g><path d="M 68.0363303820094,477.27272727272725 h 6.927990467085114e-2 " /></g><g><g><path d="M 67.759210763326,477.27272727272725 h 6.927990467085114e-2 " /></g><path d="M 67.6206509539843,477.27272727272725 h 6.927990467085114e-2 " /></g></g></g></g><g><g><g><g><g><path d="M 61.9396987709745,477.27272727272725 h 6.927990467085114e-2 " /></g><path d="M 61.8011389616328,477.27272727272725 h 6.927990467085114e-2 " /></g><g><g><path d="M 61.524019342949394,477.27272727272725 h 6.927990467085114e-2 " /></g><path d="M 61.385459533607694,477.27272727272725 h 6.927990467085114e-2 " /></g></g><g><g><g><path d="M 60.69266048689918,477.27272727272725 h 6.927990467085114e-2 " /></g><path d="M 60.55410067755748,477.27272727272725 h 6.927990467085114e-2 " /></g><g><g><path d="M 60.27698105887407,477.27272727272725 h 6.927990467085114e-2 " /></g><path d="M 60.13842124953237,477.27272727272725 h 6.927990467085114e-2 " /></g></g></g><g><g><g><g><path d="M 58.19858391874854,477.27272727272725 h 6.927990467085114e-2 " /></g><path d="M 58.06002410940684,477.27272727272725 h 6.927990467085114e-2 " /></g><g><g><path d="M 57.78290449072343,477.27272727272725 h 6.927990467085114e-2 " /></g><path d="M 57.64434468138173,477.27272727272725 h 6.927990467085114e-2 " /></g></g><g><g><g><path d="M 56.95154563467322,477.27272727272725 h 6.927990467085114e-2 " /></g><path d="M 56.812985825331516,477.27272727272725 h 6.927990467085114e-2 " /></g><g><g><path d="M 56.53586620664811,477.27272727272725 h 6.927990467085114e-2 " /></g><path d="M 56.39730639730641,477.27272727272725 h 6.927990467085114e-2 " /></g></g></g></g></g><g><g><g><g><g><g><path d="M 39.49300965761873,477.27272727272725 h 6.927990467085114e-2 " /></g><path d="M 39.35444984827703,477.27272727272725 h 6.927990467085114e-2 " /></g><g><g><path d="M 39.07733022959362,477.27272727272725 h 6.927990467085114e-2 " /></g><path d="M 38.93877042025192,477.27272727272725 h 6.927990467085114e-2 " /></g></g><g><g><g><path d="M 38.245971373543405,477.27272727272725 h 6.927990467085114e-2 " /></g><path d="M 38.107411564201705,477.27272727272725 h 6.927990467085114e-2 " /></g><g><g><path d="M 37.8302919455183,477.27272727272725 h 6.927990467085114e-2 " /></g><path d="M 37.6917321361766,477.27272727272725 h 6.927990467085114e-2 " /></g></g></g><g><g><g><g><path d="M 35.751894805392766,477.27272727272725 h 6.927990467085114e-2 " /></g><path d="M 35.613334996051066,477.27272727272725 h 6.927990467085114e-2 " /></g><g><g><path d="M 35.33621537736766,477.27272727272725 h 6.927990467085114e-2 " /></g><path d="M 35.19765556802596,477.27272727272725 h 6.927990467085114e-2 " /></g></g><g><g><g><path d="M 34.50485652131744,477.27272727272725 h 6.927990467085114e-2 " /></g><path d="M 34.36629671197574,477.27272727272725 h 6.927990467085114e-2 " /></g><g><g><path d="M 34.089177093292335,477.27272727272725 h 6.927990467085114e-2 " /></g><path d="M 33.950617283950635,477.27272727272725 h 6.927990467085114e-2 " /></g></g></g></g><g><g><g><g><g><path d="M 28.26966510094084,477.27272727272725 h 6.927990467085114e-2 " /></g><path d="M 28.131105291599138,477.27272727272725 h 6.927990467085114e-2 " /></g><g><g><path d="M 27.853985672915734,477.27272727272725 h 6.927990467085114e-2 " /></g><path d="M 27.71542586357403,477.27272727272725 h 6.927990467085114e-2 " /></g></g><g><g><g><path d="M 27.02262681686552,477.27272727272725 h 6.927990467085114e-2 " /></g><path d="M 26.884067007523818,477.27272727272725 h 6.927990467085114e-2 " /></g><g><g><path d="M 26.606947388840414,477.27272727272725 h 6.927990467085114e-2 " /></g><path d="M 26.46838757949871,477.27272727272725 h 6.927990467085114e-2 " /></g></g></g><g><g><g><g><path d="M 24.52855024871488,477.27272727272725 h 6.927990467085114e-2 " /></g><path d="M 24.389990439373175,477.27272727272725 h 6.927990467085114e-2 " /></g><g><g><path d="M 24.11287082068977,477.27272727272725 h 6.927990467085114e-2 " /></g><path d="M 23.974311011348068,477.27272727272725 h 6.927990467085114e-2 " /></g></g><g><g><g><path d="M 23.28151196463956,477.27272727272725 h 6.927990467085114e-2 " /></g><path d="M 23.142952155297856,477.27272727272725 h 6.927990467085114e-2 " /></g><g><g><path d="M 22.86583253661445,477.27272727272725 h 6.927990467085114e-2 " /></g><path d="M 22.727272727272748,477.27272727272725 h 6.927990467085114e-2 " /></g></g></g></g></g></g></g></g><g><g><g><g><g><g><g><g><g><g><path d="M 477.06488755871464,420.45454545454544 h 0.20783971401255344 " /></g><path d="M 476.64920813068954,420.45454545454544 h 0.20783971401255344 " /></g><g><g><path d="M 475.81784927463934,420.45454545454544 h 0.20783971401255344 " /></g><path d="M 475.40216984661424,420.45454545454544 h 0.20783971401255344 " /></g></g><g><g><g><path d="M 473.3237727064887,420.45454545454544 h 0.20783971401255344 " /></g><path d="M 472.9080932784636,420.45454545454544 h 0.20783971401255344 " /></g><g><g><path d="M 472.0767344224134,420.45454545454544 h 0.20783971401255344 " /></g><path d="M 471.6610549943883,420.45454545454544 h 0.20783971401255344 " /></g></g></g><g><g><g><g><path d="M 465.84154300203676,420.45454545454544 h 0.20783971401255344 " /></g><path d="M 465.42586357401166,420.45454545454544 h 0.20783971401255344 " /></g><g><g><path d="M 464.59450471796146,420.45454545454544 h 0.20783971401255344 " /></g><path d="M 464.17882528993636,420.45454545454544 h 0.20783971401255344 " /></g></g><g><g><g><path d="M 462.1004281498108,420.45454545454544 h 0.20783971401255344 " /></g><path d="M 461.6847487217857,420.45454545454544 h 0.20783971401255344 " /></g><g><g><path d="M 460.8533898657355,420.45454545454544 h 0.20783971401255344 " /></g><path d="M 460.4377104377104,420.45454545454544 h 0.20783971401255344 " /></g></g></g></g><g><g><g><g><g><path d="M 443.394853888681,420.45454545454544 h 0.20783971401255344 " /></g><path d="M 442.9791744606559,420.45454545454544 h 0.20783971401255344 " /></g><g><g><path d="M 442.1478156046057,420.45454545454544 h 0.20783971401255344 " /></g><path d="M 441.7321361765806,420.45454545454544 h 0.20783971401255344 " /></g></g><g><g><g><path d="M 439.653739036455,420.45454545454544 h 0.20783971401255344 " /></g><path d="M 439.2380596084299,420.45454545454544 h 0.20783971401255344 " /></g><g><g><path d="M 438.4067007523797,420.45454545454544 h 0.20783971401255344 " /></g><path d="M 437.9910213243546,420.45454545454544 h 0.20783971401255344 " /></g></g></g><g><g><g><g><path d="M 432.1715093320031,420.45454545454544 h 0.20783971401255344 " /></g><path d="M 431.755829903978,420.45454545454544 h 0.20783971401255344 " /></g><g><g><path d="M 430.9244710479278,420.45454545454544 h 0.20783971401255344 " /></g><path d="M 430.5087916199027,420.45454545454544 h 0.20783971401255344 " /></g></g><g><g><g><path d="M 428.43039447977714,420.45454545454544 h 0.20783971401255344 " /></g><path d="M 428.01471505175203,420.45454545454544 h 0.20783971401255344 " /></g><g><g><path d="M 427.18335619570183,420.45454545454544 h 0.20783971401255344 " /></g><path d="M 426.76767676767673,420.45454545454544 h 0.20783971401255344 " /></g></g></g></g></g><g><g><g><g><g><g><path d="M 376.05478654861366,420.45454545454544 h 0.20783971401255344 " /></g><path d="M 375.63910712058856,420.45454545454544 h 0.20783971401255344 " /></g><g><g><path d="M 374.80774826453836,420.45454545454544 h 0.20783971401255344 " /></g><path d="M 374.39206883651326,420.45454545454544 h 0.20783971401255344 " /></g></g><g><g><g><path d="M 372.3136716963877,420.45454545454544 h 0.20783971401255344 " /></g><path d="M 371.8979922683626,420.45454545454544 h 0.20783971401255344 " /></g><g><g><path d="M 371.0666334123124,420.45454545454544 h 0.20783971401255344 " /></g><path d="M 370.6509539842873,420.45454545454544 h 0.20783971401255344 " /></g></g></g><g><g><g><g><path d="M 364.8314419919358,420.45454545454544 h 0.20783971401255344 " /></g><path d="M 364.4157625639107,420.45454545454544 h 0.20783971401255344 " /></g><g><g><path d="M 363.5844037078605,420.45454545454544 h 0.20783971401255344 " /></g><path d="M 363.1687242798354,420.45454545454544 h 0.20783971401255344 " /></g></g><g><g><g><path d="M 361.0903271397098,420.45454545454544 h 0.20783971401255344 " /></g><path d="M 360.6746477116847,420.45454545454544 h 0.20783971401255344 " /></g><g><g><path d="M 359.8432888556345,420.45454545454544 h 0.20783971401255344 " /></g><path d="M 359.4276094276094,420.45454545454544 h 0.20783971401255344 " /></g></g></g></g><g><g><g><g><g><path d="M 342.38475287858,420.45454545454544 h 0.20783971401255344 " /></g><path d="M 341.9690734505549,420.45454545454544 h 0.20783971401255344 " /></g><g><g><path d="M 341.1377145945047,420.45454545454544 h 0.20783971401255344 " /></g><path d="M 340.7220351664796,420.45454545454544 h 0.20783971401255344 " /></g></g><g><g><g><path d="M 338.64363802635404,420.45454545454544 h 0.20783971401255344 " /></g><path d="M 338.22795859832894,420.45454545454544 h 0.20783971401255344 " /></g><g><g><path d="M 337.39659974227874,420.45454545454544 h 0.20783971401255344 " /></g><path d="M 336.98092031425364,420.45454545454544 h 0.20783971401255344 " /></g></g></g><g><g><g><g><path d="M 331.1614083219021,420.45454545454544 h 0.20783971401255344 " /></g><path d="M 330.745728893877,420.45454545454544 h 0.20783971401255344 " /></g><g><g><path d="M 329.9143700378268,420.45454545454544 h 0.20783971401255344 " /></g><path d="M 329.4986906098017,420.45454545454544 h 0.20783971401255344 " /></g></g><g><g><g><path d="M 327.42029346967615,420.45454545454544 h 0.20783971401255344 " /></g><path d="M 327.00461404165105,420.45454545454544 h 0.20783971401255344 " /></g><g><g><path d="M 326.17325518560085,420.45454545454544 h 0.20783971401255344 " /></g><path d="M 325.75757575757575,420.45454545454544 h 0.20783971401255344 " /></g></g></g></g></g></g><g><g><g><g><g><g><g><path d="M 174.03458452841167,420.45454545454544 h 0.20783971401255344 " /></g><path d="M 173.61890510038657,420.45454545454544 h 0.20783971401255344 " /></g><g><g><path d="M 172.78754624433634,420.45454545454544 h 0.20783971401255344 " /></g><path d="M 172.37186681631124,420.45454545454544 h 0.20783971401255344 " /></g></g><g><g><g><path d="M 170.2934696761857,420.45454545454544 h 0.20783971401255344 " /></g><path d="M 169.8777902481606,420.45454545454544 h 0.20783971401255344 " /></g><g><g><path d="M 169.04643139211038,420.45454545454544 h 0.20783971401255344 " /></g><path d="M 168.63075196408528,420.45454545454544 h 0.20783971401255344 " /></g></g></g><g><g><g><g><path d="M 162.81123997173378,420.45454545454544 h 0.20783971401255344 " /></g><path d="M 162.39556054370868,420.45454545454544 h 0.20783971401255344 " /></g><g><g><path d="M 161.56420168765845,420.45454545454544 h 0.20783971401255344 " /></g><path d="M 161.14852225963335,420.45454545454544 h 0.20783971401255344 " /></g></g><g><g><g><path d="M 159.07012511950782,420.45454545454544 h 0.20783971401255344 " /></g><path d="M 158.65444569148272,420.45454545454544 h 0.20783971401255344 " /></g><g><g><path d="M 157.8230868354325,420.45454545454544 h 0.20783971401255344 " /></g><path d="M 157.4074074074074,420.45454545454544 h 0.20783971401255344 " /></g></g></g></g><g><g><g><g><g><path d="M 140.364550858378,420.45454545454544 h 0.20783971401255344 " /></g><path d="M 139.9488714303529,420.45454545454544 h 0.20783971401255344 " /></g><g><g><path d="M 139.11751257430268,420.45454545454544 h 0.20783971401255344 " /></g><path d="M 138.70183314627758,420.45454545454544 h 0.20783971401255344 " /></g></g><g><g><g><path d="M 136.62343600615205,420.45454545454544 h 0.20783971401255344 " /></g><path d="M 136.20775657812695,420.45454545454544 h 0.20783971401255344 " /></g><g><g><path d="M 135.37639772207672,420.45454545454544 h 0.20783971401255344 " /></g><path d="M 134.96071829405162,420.45454545454544 h 0.20783971401255344 " /></g></g></g><g><g><g><g><path d="M 129.14120630170012,420.45454545454544 h 0.20783971401255344 " /></g><path d="M 128.72552687367502,420.45454545454544 h 0.20783971401255344 " /></g><g><g><path d="M 127.8941680176248,420.45454545454544 h 0.20783971401255344 " /></g><path d="M 127.4784885895997,420.45454545454544 h 0.20783971401255344 " /></g></g><g><g><g><path d="M 125.40009144947416,420.45454545454544 h 0.20783971401255344 " /></g><path d="M 124.98441202144906,420.45454545454544 h 0.20783971401255344 " /></g><g><g><path d="M 124.15305316539884,420.45454545454544 h 0.20783971401255344 " /></g><path d="M 123.73737373737374,420.45454545454544 h 0.20783971401255344 " /></g></g></g></g></g><g><g><g><g><g><g><path d="M 73.02448351831067,420.45454545454544 h 0.20783971401255344 " /></g><path d="M 72.60880409028557,420.45454545454544 h 0.20783971401255344 " /></g><g><g><path d="M 71.77744523423536,420.45454545454544 h 0.20783971401255344 " /></g><path d="M 71.36176580621026,420.45454545454544 h 0.20783971401255344 " /></g></g><g><g><g><path d="M 69.28336866608471,420.45454545454544 h 0.20783971401255344 " /></g><path d="M 68.86768923805961,420.45454545454544 h 0.20783971401255344 " /></g><g><g><path d="M 68.0363303820094,420.45454545454544 h 0.20783971401255344 " /></g><path d="M 67.6206509539843,420.45454545454544 h 0.20783971401255344 " /></g></g></g><g><g><g><g><path d="M 61.8011389616328,420.45454545454544 h 0.20783971401255344 " /></g><path d="M 61.385459533607694,420.45454545454544 h 0.20783971401255344 " /></g><g><g><path d="M 60.55410067755748,420.45454545454544 h 0.20783971401255344 " /></g><path d="M 60.13842124953237,420.45454545454544 h 0.20783971401255344 " /></g></g><g><g><g><path d="M 58.06002410940684,420.45454545454544 h 0.20783971401255344 " /></g><path d="M 57.64434468138173,420.45454545454544 h 0.20783971401255344 " /></g><g><g><path d="M 56.812985825331516,420.45454545454544 h 0.20783971401255344 " /></g><path d="M 56.39730639730641,420.45454545454544 h 0.20783971401255344 " /></g></g></g></g><g><g><g><g><g><path d="M 39.35444984827703,420.45454545454544 h 0.20783971401255344 " /></g><path d="M 38.93877042025192,420.45454545454544 h 0.20783971401255344 " /></g><g><g><path d="M 38.107411564201705,420.45454545454544 h 0.20783971401255344 " /></g><path d="M 37.6917321361766,420.45454545454544 h 0.20783971401255344 " /></g></g><g><g><g><path d="M 35.613334996051066,420.45454545454544 h 0.20783971401255344 " /></g><path d="M 35.19765556802596,420.45454545454544 h 0.20783971401255344 " /></g><g><g><path d="M 34.36629671197574,420.45454545454544 h 0.20783971401255344 " /></g><path d="M 33.950617283950635,420.45454545454544 h 0.20783971401255344 " /></g></g></g><g><g><g><g><path d="M 28.131105291599138,420.45454545454544 h 0.20783971401255344 " /></g><path d="M 27.71542586357403,420.45454545454544 h 0.20783971401255344 " /></g><g><g><path d="M 26.884067007523818,420.45454545454544 h 0.20783971401255344 " /></g><path d="M 26.46838757949871,420.45454545454544 h 0.20783971401255344 " /></g></g><g><g><g><path d="M 24.389990439373175,420.45454545454544 h 0.20783971401255344 " /></g><path d="M 23.974311011348068,420.45454545454544 h 0.20783971401255344 " /></g><g><g><path d="M 23.142952155297856,420.45454545454544 h 0.20783971401255344 " /></g><path d="M 22.727272727272748,420.45454545454544 h 0.20783971401255344 " /></g></g></g></g></g></g></g><g><g><g><g><g><g><g><path d="M 476.64920813068954,363.6363636363636 h 0.6235191420376603 " /></g><path d="M 475.40216984661424,363.6363636363636 h 0.6235191420376603 " /></g><g><g><path d="M 472.9080932784636,363.6363636363636 h 0.6235191420376603 " /></g><path d="M 471.6610549943883,363.6363636363636 h 0.6235191420376603 " /></g></g><g><g><g><path d="M 465.42586357401166,363.6363636363636 h 0.6235191420376603 " /></g><path d="M 464.17882528993636,363.6363636363636 h 0.6235191420376603 " /></g><g><g><path d="M 461.6847487217857,363.6363636363636 h 0.6235191420376603 " /></g><path d="M 460.4377104377104,363.6363636363636 h 0.6235191420376603 " /></g></g></g><g><g><g><g><path d="M 442.9791744606559,363.6363636363636 h 0.6235191420376603 " /></g><path d="M 441.7321361765806,363.6363636363636 h 0.6235191420376603 " /></g><g><g><path d="M 439.2380596084299,363.6363636363636 h 0.6235191420376603 " /></g><path d="M 437.9910213243546,363.6363636363636 h 0.6235191420376603 " /></g></g><g><g><g><path d="M 431.755829903978,363.6363636363636 h 0.6235191420376603 " /></g><path d="M 430.5087916199027,363.6363636363636 h 0.6235191420376603 " /></g><g><g><path d="M 428.01471505175203,363.6363636363636 h 0.6235191420376603 " /></g><path d="M 426.76767676767673,363.6363636363636 h 0.6235191420376603 " /></g></g></g></g><g><g><g><g><g><path d="M 375.63910712058856,363.6363636363636 h 0.6235191420376603 " /></g><path d="M 374.39206883651326,363.6363636363636 h 0.6235191420376603 " /></g><g><g><path d="M 371.8979922683626,363.6363636363636 h 0.6235191420376603 " /></g><path d="M 370.6509539842873,363.6363636363636 h 0.6235191420376603 " /></g></g><g><g><g><path d="M 364.4157625639107,363.6363636363636 h 0.6235191420376603 " /></g><path d="M 363.1687242798354,363.6363636363636 h 0.6235191420376603 " /></g><g><g><path d="M 360.6746477116847,363.6363636363636 h 0.6235191420376603 " /></g><path d="M 359.4276094276094,363.6363636363636 h 0.6235191420376603 " /></g></g></g><g><g><g><g><path d="M 341.9690734505549,363.6363636363636 h 0.6235191420376603 " /></g><path d="M 340.7220351664796,363.6363636363636 h 0.6235191420376603 " /></g><g><g><path d="M 338.22795859832894,363.6363636363636 h 0.6235191420376603 " /></g><path d="M 336.98092031425364,363.6363636363636 h 0.6235191420376603 " /></g></g><g><g><g><path d="M 330.745728893877,363.6363636363636 h 0.6235191420376603 " /></g><path d="M 329.4986906098017,363.6363636363636 h 0.6235191420376603 " /></g><g><g><path d="M 327.00461404165105,363.6363636363636 h 0.6235191420376603 " /></g><path d="M 325.75757575757575,363.6363636363636 h 0.6235191420376603 " /></g></g></g></g></g><g><g><g><g><g><g><path d="M 173.61890510038657,363.6363636363636 h 0.6235191420376603 " /></g><path d="M 172.37186681631124,363.6363636363636 h 0.6235191420376603 " /></g><g><g><path d="M 169.8777902481606,363.6363636363636 h 0.6235191420376603 " /></g><path d="M 168.63075196408528,363.6363636363636 h 0.6235191420376603 " /></g></g><g><g><g><path d="M 162.39556054370868,363.6363636363636 h 0.6235191420376603 " /></g><path d="M 161.14852225963335,363.6363636363636 h 0.6235191420376603 " /></g><g><g><path d="M 158.65444569148272,363.6363636363636 h 0.6235191420376603 " /></g><path d="M 157.4074074074074,363.6363636363636 h 0.6235191420376603 " /></g></g></g><g><g><g><g><path d="M 139.9488714303529,363.6363636363636 h 0.6235191420376603 " /></g><path d="M 138.70183314627758,363.6363636363636 h 0.6235191420376603 " /></g><g><g><path d="M 136.20775657812695,363.6363636363636 h 0.6235191420376603 " /></g><path d="M 134.96071829405162,363.6363636363636 h 0.6235191420376603 " /></g></g><g><g><g><path d="M 128.72552687367502,363.6363636363636 h 0.6235191420376603 " /></g><path d="M 127.4784885895997,363.6363636363636 h 0.6235191420376603 " /></g><g><g><path d="M 124.98441202144906,363.6363636363636 h 0.6235191420376603 " /></g><path d="M 123.73737373737374,363.6363636363636 h 0.6235191420376603 " /></g></g></g></g><g><g><g><g><g><path d="M 72.60880409028557,363.6363636363636 h 0.6235191420376603 " /></g><path d="M 71.36176580621026,363.6363636363636 h 0.6235191420376603 " /></g><g><g><path d="M 68.86768923805961,363.6363636363636 h 0.6235191420376603 " /></g><path d="M 67.6206509539843,363.6363636363636 h 0.6235191420376603 " /></g></g><g><g><g><path d="M 61.385459533607694,363.6363636363636 h 0.6235191420376603 " /></g><path d="M 60.13842124953237,363.6363636363636 h 0.6235191420376603 " /></g><g><g><path d="M 57.64434468138173,363.6363636363636 h 0.6235191420376603 " /></g><path d="M 56.39730639730641,363.6363636363636 h 0.6235191420376603 " /></g></g></g><g><g><g><g><path d="M 38.93877042025192,363.6363636363636 h 0.6235191420376603 " /></g><path d="M 37.6917321361766,363.6363636363636 h 0.6235191420376603 " /></g><g><g><path d="M 35.19765556802596,363.6363636363636 h 0.6235191420376603 " /></g><path d="M 33.950617283950635,363.6363636363636 h 0.6235191420376603 " /></g></g><g><g><g><path d="M 27.71542586357403,363.6363636363636 h 0.6235191420376603 " /></g><path d="M 26.46838757949871,363.6363636363636 h 0.6235191420376603 " /></g><g><g><path d="M 23.974311011348068,363.6363636363636 h 0.6235191420376603 " /></g><path d="M 22.727272727272748,363.6363636363636 h 0.6235191420376603 " /></g></g></g></g></g></g></g><g><g><g><g><g><g><path d="M 475.40216984661424,306.8181818181818 h 1.8705574261129811 " /></g><path d="M 471.6610549943883,306.8181818181818 h 1.8705574261129811 " /></g><g><g><path d="M 464.17882528993636,306.8181818181818 h 1.8705574261129811 " /></g><path d="M 460.4377104377104,306.8181818181818 h 1.8705574261129811 " /></g></g><g><g><g><path d="M 441.7321361765806,306.8181818181818 h 1.8705574261129811 " /></g><path d="M 437.9910213243546,306.8181818181818 h 1.8705574261129811 " /></g><g><g><path d="M 430.5087916199027,306.8181818181818 h 1.8705574261129811 " /></g><path d="M 426.76767676767673,306.8181818181818 h 1.8705574261129811 " /></g></g></g><g><g><g><g><path d="M 374.39206883651326,306.8181818181818 h 1.8705574261129811 " /></g><path d="M 370.6509539842873,306.8181818181818 h 1.8705574261129811 " /></g><g><g><path d="M 363.1687242798354,306.8181818181818 h 1.8705574261129811 " /></g><path d="M 359.4276094276094,306.8181818181818 h 1.8705574261129811 " /></g></g><g><g><g><path d="M 340.7220351664796,306.8181818181818 h 1.8705574261129811 " /></g><path d="M 336.98092031425364,306.8181818181818 h 1.8705574261129811 " /></g><g><g><path d="M 329.4986906098017,306.8181818181818 h 1.8705574261129811 " /></g><path d="M 325.75757575757575,306.8181818181818 h 1.8705574261129811 " /></g></g></g></g><g><g><g><g><g><path d="M 172.37186681631124,306.8181818181818 h 1.8705574261129811 " /></g><path d="M 168.63075196408528,306.8181818181818 h 1.8705574261129811 " /></g><g><g><path d="M 161.14852225963335,306.8181818181818 h 1.8705574261129811 " /></g><path d="M 157.4074074074074,306.8181818181818 h 1.8705574261129811 " /></g></g><g><g><g><path d="M 138.70183314627758,306.8181818181818 h 1.8705574261129811 " /></g><path d="M 134.96071829405162,306.8181818181818 h 1.8705574261129811 " /></g><g><g><path d="M 127.4784885895997,306.8181818181818 h 1.8705574261129811 " /></g><path d="M 123.73737373737374,306.8181818181818 h 1.8705574261129811 " /></g></g></g><g><g><g><g><path d="M 71.36176580621026,306.8181818181818 h 1.8705574261129811 " /></g><path d="M 67.6206509539843,306.8181818181818 h 1.8705574261129811 " /></g><g><g><path d="M 60.13842124953237,306.8181818181818 h 1.8705574261129811 " /></g><path d="M 56.39730639730641,306.8181818181818 h 1.8705574261129811 " /></g></g><g><g><g><path d="M 37.6917321361766,306.8181818181818 h 1.8705574261129811 " /></g><path d="M 33.950617283950635,306.8181818181818 h 1.8705574261129811 " /></g><g><g><path d="M 26.46838757949871,306.8181818181818 h 1.8705574261129811 " /></g><path d="M 22.727272727272748,306.8181818181818 h 1.8705574261129811 " /></g></g></g></g></g><g><g><g><g><g><path d="M 471.6610549943883,250.0 h 5.611672278338943 " /></g><path d="M 460.4377104377104,250.0 h 5.611672278338943 " /></g><g><g><path d="M 437.9910213243546,250.0 h 5.611672278338943 " /></g><path d="M 426.76767676767673,250.0 h 5.611672278338943 " /></g></g><g><g><g><path d="M 370.6509539842873,250.0 h 5.611672278338943 " /></g><path d="M 359.4276094276094,250.0 h 5.611672278338943 " /></g><g><g><path d="M 336.98092031425364,250.0 h 5.611672278338943 " /></g><path d="M 325.75757575757575,250.0 h 5.611672278338943 " /></g></g></g><g><g><g><g><path d="M 168.63075196408528,250.0 h 5.611672278338943 " /></g><path d="M 157.4074074074074,250.0 h 5.611672278338943 " /></g><g><g><path d="M 134.96071829405162,250.0 h 5.611672278338943 " /></g><path d="M 123.73737373737374,250.0 h 5.611672278338943 " /></g></g><g><g><g><path d="M 67.6206509539843,250.0 h 5.611672278338943 " /></g><path d="M 56.39730639730641,250.0 h 5.611672278338943 " /></g><g><g><path d="M 33.950617283950635,250.0 h 5.611672278338943 " /></g><path d="M 22.727272727272748,250.0 h 5.611672278338943 " /></g></g></g></g></g><g><g><g><g><g><path d="M 460.4377104377104,193.1818181818182 h 16.83501683501683 " /></g><path d="M 426.76767676767673,193.1818181818182 h 16.83501683501683 " /></g><g><g><path d="M 359.4276094276094,193.1818181818182 h 16.83501683501683 " /></g><path d="M 325.75757575757575,193.1818181818182 h 16.83501683501683 " /></g></g><g><g><g><path d="M 157.4074074074074,193.1818181818182 h 16.83501683501683 " /></g><path d="M 123.73737373737374,193.1818181818182 h 16.83501683501683 " /></g><g><g><path d="M 56.39730639730641,193.1818181818182 h 16.83501683501683 " /></g><path d="M 22.727272727272748,193.1818181818182 h 16.83501683501683 " /></g></g></g><g><g><g><path d="M 426.76767676767673,136.36363636363637 h 50.5050505050505 " /></g><path d="M 325.75757575757575,136.36363636363637 h 50.5050505050505 " /></g><g><g><path d="M 123.73737373737374,136.36363636363637 h 50.5050505050505 " /></g><path d="M 22.727272727272748,136.36363636363637 h 50.5050505050505 " /></g></g></g><g><g><path d="M 325.75757575757575,79.54545454545456 h 151.5151515151515 " /></g><path d="M 22.727272727272748,79.54545454545456 h 151.5151515151515 " /></g><path d="M 22.727272727272748,22.727272727272748 h 454.5454545454545 " /></g></g></g></g></svg>